<svg width="61" height="61" viewBox="0 0 61 61" fill="none" xmlns="http://www.w3.org/2000/svg">
<path d="M36.9163 3.54688L34.2522 4.79562L30.8316 19.2134L37.8755 6.09219L36.9165 3.54688H36.9163ZM7.764 6.40684C9.08998 15.4229 13.3735 22.9798 19.3685 29.3463C21.0268 28.2109 22.6761 27.0622 24.3164 25.9004C21.7501 22.6995 19.9323 19.314 19.2671 15.7895C15.3042 12.6849 11.4357 9.53445 7.76411 6.40695L7.764 6.40684ZM52.991 6.41059C49.41 9.46191 45.6412 12.5357 41.7807 15.5697C40.5838 22.394 35.0526 28.7034 28.0878 34.1585C20.5089 40.0945 11.1122 45.0492 3.15258 48.3857L3.15234 52.2271C13.9995 48.2273 25.8023 42.6907 35.222 35.0484C44.3763 27.6213 51.2442 18.2831 52.991 6.41059ZM25.6375 7.50559L24.653 10.7649L29.3657 19.3266L28.5694 9.32938L25.6375 7.50559ZM38.9215 17.7962C26.7324 27.2006 13.8602 36.0356 3.15258 42.2516V46.0127C10.7875 42.7415 19.6672 37.9842 26.7632 32.4262C32.5349 27.9058 37.0512 22.8739 38.9216 17.7962H38.9215ZM22.1772 18.0487C23.0285 20.2624 24.3814 22.4643 26.1153 24.6186C26.9295 24.035 27.7433 23.4432 28.5585 22.8498C26.4222 21.2729 24.2888 19.6718 22.1772 18.0487ZM41.7049 32.1518C40.5961 33.2618 39.437 34.33 38.241 35.3633C44.6015 39.7337 51.8192 43.4675 58.1523 46.1628V42.5193C53.0722 39.5911 47.4843 36.0588 41.7049 32.1518ZM36.5036 36.817C35.1542 37.9092 33.7589 38.956 32.3303 39.9629C40.476 45.2521 49.6268 49.3115 58.1522 52.4287V48.5357C51.3349 45.6971 43.4306 41.6537 36.5035 36.817H36.5036ZM29.7132 42.9146L24.3634 52.0845L25.2684 54.8493L28.4826 53.52L29.7132 42.9146ZM31.5484 43.0098L37.4989 55.2705L41.7231 56.4752L41.3139 52.7291L31.5484 43.0098Z" fill="#FB5D2C"/>
<path d="M36.9163 3.54688L34.2522 4.79562L30.8316 19.2134L37.8755 6.09219L36.9165 3.54688H36.9163ZM7.764 6.40684C9.08998 15.4229 13.3735 22.9798 19.3685 29.3463C21.0268 28.2109 22.6761 27.0622 24.3164 25.9004C21.7501 22.6995 19.9323 19.314 19.2671 15.7895C15.3042 12.6849 11.4357 9.53445 7.76411 6.40695L7.764 6.40684ZM52.991 6.41059C49.41 9.46191 45.6412 12.5357 41.7807 15.5697C40.5838 22.394 35.0526 28.7034 28.0878 34.1585C20.5089 40.0945 11.1122 45.0492 3.15258 48.3857L3.15234 52.2271C13.9995 48.2273 25.8023 42.6907 35.222 35.0484C44.3763 27.6213 51.2442 18.2831 52.991 6.41059ZM25.6375 7.50559L24.653 10.7649L29.3657 19.3266L28.5694 9.32938L25.6375 7.50559ZM38.9215 17.7962C26.7324 27.2006 13.8602 36.0356 3.15258 42.2516V46.0127C10.7875 42.7415 19.6672 37.9842 26.7632 32.4262C32.5349 27.9058 37.0512 22.8739 38.9216 17.7962H38.9215ZM22.1772 18.0487C23.0285 20.2624 24.3814 22.4643 26.1153 24.6186C26.9295 24.035 27.7433 23.4432 28.5585 22.8498C26.4222 21.2729 24.2888 19.6718 22.1772 18.0487ZM41.7049 32.1518C40.5961 33.2618 39.437 34.33 38.241 35.3633C44.6015 39.7337 51.8192 43.4675 58.1523 46.1628V42.5193C53.0722 39.5911 47.4843 36.0588 41.7049 32.1518ZM36.5036 36.817C35.1542 37.9092 33.7589 38.956 32.3303 39.9629C40.476 45.2521 49.6268 49.3115 58.1522 52.4287V48.5357C51.3349 45.6971 43.4306 41.6537 36.5035 36.817H36.5036ZM29.7132 42.9146L24.3634 52.0845L25.2684 54.8493L28.4826 53.52L29.7132 42.9146ZM31.5484 43.0098L37.4989 55.2705L41.7231 56.4752L41.3139 52.7291L31.5484 43.0098Z" fill="url(#paint0_linear_295_1261)" fill-opacity="0.2"/>
<defs>
<linearGradient id="paint0_linear_295_1261" x1="30.6523" y1="3.54687" x2="30.6523" y2="56.4752" gradientUnits="userSpaceOnUse">
<stop/>
<stop offset="1" stop-opacity="0"/>
</linearGradient>
</defs>
</svg>
