<svg width="61" height="61" viewBox="0 0 61 61" fill="none" xmlns="http://www.w3.org/2000/svg">
<path d="M11.406 1.55469L11.3868 19.8773C11.7458 19.9367 12.1143 20.039 12.4871 20.1852C16.764 21.8616 21.1841 22.8143 25.5962 23.1703L30.6824 16.0903L35.6414 22.9933C39.9548 22.5097 44.1452 21.5282 48.0594 20.1703C48.4993 20.0177 48.9228 19.9148 49.3271 19.8656L49.5056 1.5548L40.6205 12.7523L36.6262 1.55504L30.3305 13.7121L24.0349 1.55504L19.8816 12.7523L11.4066 1.55504H11.4059L11.406 1.55469ZM30.6824 19.8441L27.3266 24.5152L30.6821 29.1863L34.038 24.5152L30.6824 19.8441ZM10.7446 22.0074C10.4899 21.998 10.2946 22.0395 10.1572 22.0967C9.88242 22.2112 9.78539 22.3534 9.74754 22.5884C9.67195 23.0584 10.0786 24.2701 12.4464 25.0916C17.3331 26.787 22.3208 27.8745 27.3032 28.2361L25.2231 25.3411C20.6794 24.9561 16.1188 23.9612 11.6879 22.2243C11.3133 22.0775 10.9992 22.0168 10.7446 22.0074ZM49.8002 22.0297C49.5476 22.0358 49.2087 22.0897 48.7774 22.2395C44.842 23.6047 40.6344 24.6084 36.2943 25.1277L34.0368 28.2704C38.7743 27.9655 43.4625 26.9477 48.0079 25.111C49.8727 24.3575 50.5227 23.0239 50.511 22.4905C50.5049 22.2237 50.4784 22.1898 50.3055 22.1068C50.2191 22.0654 50.0529 22.0236 49.8002 22.0297ZM47.6771 27.5888C42.6967 29.4486 37.5686 30.3845 32.4121 30.5322L30.6824 32.9401L28.9389 30.5131C23.6672 30.3086 18.3943 29.3143 13.2469 27.6648C11.7492 31.0058 11.0273 34.8296 10.9496 38.6148C15.3465 40.6652 18.2311 43.2808 19.8039 46.1886C21.3193 48.9898 21.5868 52.0156 20.9893 54.8703C21.894 55.4571 22.8791 55.9419 23.9167 56.3272L24.5679 50.7151L26.7432 50.9675L26.0477 56.9623C27.1692 57.2213 28.3262 57.376 29.4903 57.429V51.0223H31.6806V57.4079C32.8411 57.3331 33.9898 57.1585 35.0972 56.8824L34.4108 50.9675L36.5863 50.715L37.2233 56.2054C38.2484 55.8044 39.216 55.3098 40.0951 54.7183C39.4203 51.8574 39.6533 48.8981 41.151 46.165C42.7072 43.3251 45.5711 40.7744 49.917 38.6311C49.8443 34.7022 49.1333 30.8824 47.6771 27.5885V27.5888ZM16.4194 33.0973C20.4743 33.1243 24.4358 34.5312 28.2973 37.4177C22.8359 41.3021 13.087 41.4457 15.607 33.1105C15.8783 33.0999 16.1491 33.0956 16.4195 33.0976L16.4194 33.0973ZM44.8754 33.0973C45.1458 33.0955 45.4165 33.0999 45.6875 33.1102C48.2078 41.4455 38.4589 41.302 32.9975 37.4177C36.8589 34.5314 40.8205 33.1243 44.8754 33.0975V33.0973ZM30.4792 38.9516C31.8585 41.4975 32.7284 44.0436 33.4519 46.5896H27.5061C28.0417 44.0436 29.1198 41.4978 30.4792 38.9513V38.9516Z" fill="#FB5D2C"/>
<path d="M11.406 1.55469L11.3868 19.8773C11.7458 19.9367 12.1143 20.039 12.4871 20.1852C16.764 21.8616 21.1841 22.8143 25.5962 23.1703L30.6824 16.0903L35.6414 22.9933C39.9548 22.5097 44.1452 21.5282 48.0594 20.1703C48.4993 20.0177 48.9228 19.9148 49.3271 19.8656L49.5056 1.5548L40.6205 12.7523L36.6262 1.55504L30.3305 13.7121L24.0349 1.55504L19.8816 12.7523L11.4066 1.55504H11.4059L11.406 1.55469ZM30.6824 19.8441L27.3266 24.5152L30.6821 29.1863L34.038 24.5152L30.6824 19.8441ZM10.7446 22.0074C10.4899 21.998 10.2946 22.0395 10.1572 22.0967C9.88242 22.2112 9.78539 22.3534 9.74754 22.5884C9.67195 23.0584 10.0786 24.2701 12.4464 25.0916C17.3331 26.787 22.3208 27.8745 27.3032 28.2361L25.2231 25.3411C20.6794 24.9561 16.1188 23.9612 11.6879 22.2243C11.3133 22.0775 10.9992 22.0168 10.7446 22.0074ZM49.8002 22.0297C49.5476 22.0358 49.2087 22.0897 48.7774 22.2395C44.842 23.6047 40.6344 24.6084 36.2943 25.1277L34.0368 28.2704C38.7743 27.9655 43.4625 26.9477 48.0079 25.111C49.8727 24.3575 50.5227 23.0239 50.511 22.4905C50.5049 22.2237 50.4784 22.1898 50.3055 22.1068C50.2191 22.0654 50.0529 22.0236 49.8002 22.0297ZM47.6771 27.5888C42.6967 29.4486 37.5686 30.3845 32.4121 30.5322L30.6824 32.9401L28.9389 30.5131C23.6672 30.3086 18.3943 29.3143 13.2469 27.6648C11.7492 31.0058 11.0273 34.8296 10.9496 38.6148C15.3465 40.6652 18.2311 43.2808 19.8039 46.1886C21.3193 48.9898 21.5868 52.0156 20.9893 54.8703C21.894 55.4571 22.8791 55.9419 23.9167 56.3272L24.5679 50.7151L26.7432 50.9675L26.0477 56.9623C27.1692 57.2213 28.3262 57.376 29.4903 57.429V51.0223H31.6806V57.4079C32.8411 57.3331 33.9898 57.1585 35.0972 56.8824L34.4108 50.9675L36.5863 50.715L37.2233 56.2054C38.2484 55.8044 39.216 55.3098 40.0951 54.7183C39.4203 51.8574 39.6533 48.8981 41.151 46.165C42.7072 43.3251 45.5711 40.7744 49.917 38.6311C49.8443 34.7022 49.1333 30.8824 47.6771 27.5885V27.5888ZM16.4194 33.0973C20.4743 33.1243 24.4358 34.5312 28.2973 37.4177C22.8359 41.3021 13.087 41.4457 15.607 33.1105C15.8783 33.0999 16.1491 33.0956 16.4195 33.0976L16.4194 33.0973ZM44.8754 33.0973C45.1458 33.0955 45.4165 33.0999 45.6875 33.1102C48.2078 41.4455 38.4589 41.302 32.9975 37.4177C36.8589 34.5314 40.8205 33.1243 44.8754 33.0975V33.0973ZM30.4792 38.9516C31.8585 41.4975 32.7284 44.0436 33.4519 46.5896H27.5061C28.0417 44.0436 29.1198 41.4978 30.4792 38.9513V38.9516Z" fill="url(#paint0_linear_295_1286)" fill-opacity="0.2"/>
<defs>
<linearGradient id="paint0_linear_295_1286" x1="30.1252" y1="1.55469" x2="30.1252" y2="57.429" gradientUnits="userSpaceOnUse">
<stop/>
<stop offset="1" stop-opacity="0"/>
</linearGradient>
</defs>
</svg>
