<svg width="56" height="56" viewBox="0 0 56 56" fill="none" xmlns="http://www.w3.org/2000/svg">
<path d="M20.4788 1.93359L18.7879 2.23223L20.2691 10.652L21.9599 10.3542L20.4788 1.93359ZM30.0393 3.84785C29.3529 4.72227 29.1163 5.44951 29.1507 6.08652C29.1926 6.86104 29.6309 7.65059 30.428 8.48311C31.6472 9.75498 33.6356 11.0118 35.596 12.3159L35.3812 13.7831L34.9762 13.8692L34.0889 14.054L34.0945 14.0604L19.7225 17.1757C19.4346 17.7128 19.2778 18.5485 19.3734 19.366C19.4636 20.1459 19.7752 20.8259 20.1254 21.2062L32.6763 18.4937L33.2983 19.9697L22.1715 27.3818C22.1362 27.8698 22.2215 28.359 22.4199 28.8063C22.4414 28.8567 22.4639 28.9051 22.4876 28.9545C22.5604 29.1037 22.6429 29.2479 22.7346 29.3863C23.1471 30.0223 23.7605 30.5067 24.2589 30.6915L35.899 22.8497L36.9871 24.0399L27.8909 35.215C28.0359 35.7103 28.457 36.329 29.0725 36.7931C29.7085 37.2754 30.469 37.5386 31.077 37.5278L39.9039 26.8522L41.2894 27.6783L36.7777 38.8201C37.0817 39.2391 37.6843 39.6645 38.4298 39.8943C39.2065 40.1328 40.0519 40.1317 40.6341 39.947L46.7778 25.1679L46.7832 25.1539C47.5609 23.1881 49.791 21.9463 52.8267 20.944C52.9621 20.8993 53.1015 20.856 53.2407 20.8122V6.09372C50.5186 8.30396 47.4836 10.0982 44.2349 11.4178L44.2295 11.4231C44.8477 11.9144 45.4195 12.4613 45.9378 13.057C47.0002 14.3096 47.6339 15.7888 47.4417 17.4291L45.8303 17.2411C45.9614 16.1003 45.5745 15.1421 44.699 14.1098C43.8235 13.0774 42.4517 12.0387 40.8028 10.9655C37.6886 8.94169 33.6165 6.78477 30.0393 3.84785ZM8.43248 7.24561L7.30863 8.54541L13.9763 14.3097L15.0999 13.0099L8.43227 7.24561H8.43248ZM3.70162 19.0953L3.66832 20.8141L11.2027 20.9645L11.2328 19.2403L3.70162 19.0953ZM13.5812 25.0687C13.0237 25.0726 12.4784 25.2327 12.0073 25.5309C11.5362 25.8291 11.1582 26.2534 10.9162 26.7557C10.6742 27.258 10.5779 27.8181 10.6383 28.3723C10.6987 28.9266 10.9132 29.4528 11.2577 29.8912L5.57914 47.2194C4.95201 47.3805 4.394 47.7405 3.98877 48.2455C3.58355 48.7505 3.35295 49.3732 3.33158 50.0204C3.3102 50.6675 3.49919 51.3041 3.8702 51.8347C4.24122 52.3654 4.77426 52.7614 5.38939 52.9635C6.00452 53.1656 6.66859 53.1628 7.282 52.9556C7.89542 52.7483 8.42512 52.3478 8.79168 51.8141C9.15823 51.2804 9.34188 50.6422 9.31507 49.9953C9.28827 49.3484 9.05247 48.7276 8.64303 48.226L14.3052 30.9461C14.9409 30.7916 15.5081 30.4324 15.9193 29.9237C16.3306 29.415 16.5632 28.7852 16.5811 28.1313C16.5991 27.4774 16.4014 26.8357 16.0187 26.3053C15.636 25.7748 15.0893 25.3849 14.4631 25.1958C14.1772 25.1095 13.8799 25.0667 13.5812 25.0687ZM2.10791 29.3595V34.8613L3.69303 35.3793C3.80979 35.4145 3.91834 35.4728 4.01227 35.5506C4.10621 35.6284 4.18365 35.7242 4.24004 35.8323C4.29643 35.9405 4.33063 36.0588 4.34064 36.1804C4.35064 36.3019 4.33625 36.4243 4.2983 36.5402C4.26035 36.6561 4.19962 36.7633 4.11966 36.8554C4.03971 36.9475 3.94215 37.0227 3.83272 37.0766C3.72329 37.1305 3.60419 37.1619 3.48243 37.1691C3.36067 37.1763 3.2387 37.1591 3.12369 37.1185L2.10791 36.7865V42.5078L4.58033 43.3188L8.47008 31.4498L2.10791 29.3595ZM14.4738 35.8886L12.0439 43.3007L13.5628 43.798L15.9927 36.3859L14.4738 35.8886ZM17.6255 36.922L15.1957 44.3341L16.7189 44.8314L19.1488 37.4193L17.6255 36.922ZM20.7773 37.9543L18.3474 45.3664L19.8664 45.8638L22.2962 38.4517L20.7773 37.9543ZM23.9387 38.9866L21.5088 46.3987L23.0278 46.8959L25.4577 39.4838L23.9387 38.9866ZM27.0819 40.02L24.652 47.4321L26.1795 47.9273L28.6094 40.5152L27.0819 40.02ZM30.2433 41.0523L27.8134 48.4645L29.3324 48.9618L31.7623 41.5497L30.2433 41.0523ZM33.3918 42.0847L30.962 49.4968L32.4809 49.9941L34.9108 42.582L33.3918 42.0847ZM36.8175 42.2533L33.6754 51.8429C34.312 52.077 34.9892 52.1804 35.6666 52.147C36.344 52.1137 37.0077 51.9441 37.6181 51.6486C38.2286 51.3531 38.7732 50.9376 39.2196 50.4269C39.6659 49.9162 40.0048 49.3209 40.2159 48.6764C40.4271 48.0319 40.5063 47.3514 40.4487 46.6757C40.3911 45.9999 40.198 45.3426 39.8808 44.7431C39.5636 44.1437 39.1289 43.6142 38.6026 43.1864C38.0763 42.7587 37.4692 42.4413 36.8175 42.2533Z" fill="#FB5D2C"/>
<path d="M20.4788 1.93359L18.7879 2.23223L20.2691 10.652L21.9599 10.3542L20.4788 1.93359ZM30.0393 3.84785C29.3529 4.72227 29.1163 5.44951 29.1507 6.08652C29.1926 6.86104 29.6309 7.65059 30.428 8.48311C31.6472 9.75498 33.6356 11.0118 35.596 12.3159L35.3812 13.7831L34.9762 13.8692L34.0889 14.054L34.0945 14.0604L19.7225 17.1757C19.4346 17.7128 19.2778 18.5485 19.3734 19.366C19.4636 20.1459 19.7752 20.8259 20.1254 21.2062L32.6763 18.4937L33.2983 19.9697L22.1715 27.3818C22.1362 27.8698 22.2215 28.359 22.4199 28.8063C22.4414 28.8567 22.4639 28.9051 22.4876 28.9545C22.5604 29.1037 22.6429 29.2479 22.7346 29.3863C23.1471 30.0223 23.7605 30.5067 24.2589 30.6915L35.899 22.8497L36.9871 24.0399L27.8909 35.215C28.0359 35.7103 28.457 36.329 29.0725 36.7931C29.7085 37.2754 30.469 37.5386 31.077 37.5278L39.9039 26.8522L41.2894 27.6783L36.7777 38.8201C37.0817 39.2391 37.6843 39.6645 38.4298 39.8943C39.2065 40.1328 40.0519 40.1317 40.6341 39.947L46.7778 25.1679L46.7832 25.1539C47.5609 23.1881 49.791 21.9463 52.8267 20.944C52.9621 20.8993 53.1015 20.856 53.2407 20.8122V6.09372C50.5186 8.30396 47.4836 10.0982 44.2349 11.4178L44.2295 11.4231C44.8477 11.9144 45.4195 12.4613 45.9378 13.057C47.0002 14.3096 47.6339 15.7888 47.4417 17.4291L45.8303 17.2411C45.9614 16.1003 45.5745 15.1421 44.699 14.1098C43.8235 13.0774 42.4517 12.0387 40.8028 10.9655C37.6886 8.94169 33.6165 6.78477 30.0393 3.84785ZM8.43248 7.24561L7.30863 8.54541L13.9763 14.3097L15.0999 13.0099L8.43227 7.24561H8.43248ZM3.70162 19.0953L3.66832 20.8141L11.2027 20.9645L11.2328 19.2403L3.70162 19.0953ZM13.5812 25.0687C13.0237 25.0726 12.4784 25.2327 12.0073 25.5309C11.5362 25.8291 11.1582 26.2534 10.9162 26.7557C10.6742 27.258 10.5779 27.8181 10.6383 28.3723C10.6987 28.9266 10.9132 29.4528 11.2577 29.8912L5.57914 47.2194C4.95201 47.3805 4.394 47.7405 3.98877 48.2455C3.58355 48.7505 3.35295 49.3732 3.33158 50.0204C3.3102 50.6675 3.49919 51.3041 3.8702 51.8347C4.24122 52.3654 4.77426 52.7614 5.38939 52.9635C6.00452 53.1656 6.66859 53.1628 7.282 52.9556C7.89542 52.7483 8.42512 52.3478 8.79168 51.8141C9.15823 51.2804 9.34188 50.6422 9.31507 49.9953C9.28827 49.3484 9.05247 48.7276 8.64303 48.226L14.3052 30.9461C14.9409 30.7916 15.5081 30.4324 15.9193 29.9237C16.3306 29.415 16.5632 28.7852 16.5811 28.1313C16.5991 27.4774 16.4014 26.8357 16.0187 26.3053C15.636 25.7748 15.0893 25.3849 14.4631 25.1958C14.1772 25.1095 13.8799 25.0667 13.5812 25.0687ZM2.10791 29.3595V34.8613L3.69303 35.3793C3.80979 35.4145 3.91834 35.4728 4.01227 35.5506C4.10621 35.6284 4.18365 35.7242 4.24004 35.8323C4.29643 35.9405 4.33063 36.0588 4.34064 36.1804C4.35064 36.3019 4.33625 36.4243 4.2983 36.5402C4.26035 36.6561 4.19962 36.7633 4.11966 36.8554C4.03971 36.9475 3.94215 37.0227 3.83272 37.0766C3.72329 37.1305 3.60419 37.1619 3.48243 37.1691C3.36067 37.1763 3.2387 37.1591 3.12369 37.1185L2.10791 36.7865V42.5078L4.58033 43.3188L8.47008 31.4498L2.10791 29.3595ZM14.4738 35.8886L12.0439 43.3007L13.5628 43.798L15.9927 36.3859L14.4738 35.8886ZM17.6255 36.922L15.1957 44.3341L16.7189 44.8314L19.1488 37.4193L17.6255 36.922ZM20.7773 37.9543L18.3474 45.3664L19.8664 45.8638L22.2962 38.4517L20.7773 37.9543ZM23.9387 38.9866L21.5088 46.3987L23.0278 46.8959L25.4577 39.4838L23.9387 38.9866ZM27.0819 40.02L24.652 47.4321L26.1795 47.9273L28.6094 40.5152L27.0819 40.02ZM30.2433 41.0523L27.8134 48.4645L29.3324 48.9618L31.7623 41.5497L30.2433 41.0523ZM33.3918 42.0847L30.962 49.4968L32.4809 49.9941L34.9108 42.582L33.3918 42.0847ZM36.8175 42.2533L33.6754 51.8429C34.312 52.077 34.9892 52.1804 35.6666 52.147C36.344 52.1137 37.0077 51.9441 37.6181 51.6486C38.2286 51.3531 38.7732 50.9376 39.2196 50.4269C39.6659 49.9162 40.0048 49.3209 40.2159 48.6764C40.4271 48.0319 40.5063 47.3514 40.4487 46.6757C40.3911 45.9999 40.198 45.3426 39.8808 44.7431C39.5636 44.1437 39.1289 43.6142 38.6026 43.1864C38.0763 42.7587 37.4692 42.4413 36.8175 42.2533Z" fill="url(#paint0_linear_295_1294)" fill-opacity="0.2"/>
<defs>
<linearGradient id="paint0_linear_295_1294" x1="27.6743" y1="1.93359" x2="27.6743" y2="53.113" gradientUnits="userSpaceOnUse">
<stop/>
<stop offset="1" stop-opacity="0"/>
</linearGradient>
</defs>
</svg>
