<svg width="61" height="61" viewBox="0 0 61 61" fill="none" xmlns="http://www.w3.org/2000/svg">
<path d="M16.3509 9.04722C14.3162 9.70332 12.7241 10.4237 10.7624 11.8632C10.5081 12.106 10.2588 12.354 10.0146 12.6071C10.0425 12.6728 10.0854 12.754 10.149 12.8684C10.2669 13.0811 10.4703 13.3355 10.7261 13.5872C10.334 14.2164 9.96603 14.8604 9.62292 15.5176C9.19744 15.1646 8.81563 14.7718 8.50883 14.3308C7.61917 15.4399 6.82522 16.6224 6.1355 17.8656C6.18137 18.0556 6.31631 18.2628 6.57445 18.5403C6.88287 18.8716 7.36467 19.2138 7.9245 19.5058C7.68946 20.2161 7.48787 20.9229 7.32228 21.6285C6.45833 21.236 5.66811 20.7264 5.04696 20.0791C4.34668 21.7078 3.82472 23.4075 3.49021 25.1485C3.64524 25.4312 3.9215 25.69 4.33931 25.9651C4.92828 26.353 5.77459 26.6707 6.69452 26.8543C6.68929 27.6018 6.72355 28.3432 6.78881 29.075C5.46419 28.8807 4.18707 28.4656 3.14544 27.7795C3.13964 27.7756 3.13313 27.7726 3.12733 27.7686C2.97856 29.545 3.02112 31.3321 3.25425 33.0994C3.5225 33.5035 3.97143 33.7911 4.64042 34.0212C5.50042 34.3168 6.66932 34.4095 7.85935 34.2896C8.0916 35.0006 8.35578 35.6982 8.65015 36.3799C7.02791 36.6235 5.37118 36.5682 3.93636 36.075C3.89723 36.0616 3.85914 36.0458 3.82024 36.0315C4.27949 37.8174 4.9355 39.5468 5.77622 41.1881C6.1888 41.5137 6.74585 41.6776 7.48555 41.7287C8.5655 41.8035 9.94086 41.5278 11.2524 40.9922C11.6824 41.6012 12.1376 42.192 12.6168 42.763C10.9249 43.5428 9.09131 44.0027 7.38394 43.8952C8.53976 45.5928 9.89855 47.1429 11.4301 48.5112C11.9248 48.6791 12.5101 48.6813 13.2154 48.5437C14.3302 48.3262 15.6372 47.6839 16.8187 46.8018C16.8197 46.8024 16.8217 46.8012 16.8224 46.8018C17.4194 47.2631 18.0357 47.699 18.6695 48.1082C17.2788 49.259 15.6938 50.1631 14.0791 50.5723C15.4434 51.4954 16.896 52.2806 18.4155 52.9164C18.9888 52.9655 19.6105 52.8049 20.3135 52.4628C21.2044 52.0291 22.1459 51.2723 22.9878 50.3401C24.9661 51.1278 27.021 51.643 29.0916 51.8387L29.2983 49.6759C27.6414 49.5191 25.979 49.122 24.3558 48.5218C25.1551 47.2319 25.704 45.8309 25.8585 44.639C25.9953 43.5807 25.8681 42.7628 25.4193 42.1496C24.481 41.9661 23.5741 41.692 22.7049 41.3367C22.6849 42.088 22.5068 42.8448 22.2149 43.554C21.78 44.611 21.1094 45.6207 20.2953 46.5407C19.6712 46.1567 19.0645 45.745 18.4772 45.3068C19.2459 44.4728 19.8617 43.5685 20.2081 42.7266C20.6501 41.6529 20.6927 40.8015 20.2807 40.0778C19.381 39.5022 18.5385 38.831 17.7587 38.0782C17.5529 38.5775 17.2725 39.0501 16.9422 39.4826C16.3063 40.3146 15.4823 41.0514 14.5543 41.6779C14.0759 41.1298 13.6193 40.5627 13.1899 39.9723C14.0204 39.4272 14.7339 38.7994 15.2186 38.1651C15.8036 37.3994 16.057 36.7241 15.9696 36.064C15.3852 35.2927 14.8611 34.4774 14.402 33.6254C14.1363 33.9379 13.8382 34.2214 13.5128 34.4711C12.7281 35.0721 11.7944 35.5343 10.7948 35.8681C10.4935 35.2074 10.2192 34.5329 9.98197 33.8433C10.8444 33.564 11.6228 33.1833 12.1918 32.7474C12.8532 32.2409 13.2139 31.7551 13.2987 31.2088C12.9426 30.2666 12.6552 29.3 12.4387 28.3164C12.2218 28.4412 11.9962 28.5503 11.7638 28.643C10.8986 28.9852 9.93482 29.1579 8.94429 29.1946C8.86586 28.4726 8.82582 27.747 8.82434 27.0208C9.63221 26.9902 10.3878 26.8539 10.9657 26.6254C11.4998 26.414 11.8476 26.1841 12.0506 25.8996C11.9295 24.7498 11.8979 23.5923 11.9562 22.4376C11.8807 22.4497 11.8064 22.4585 11.7311 22.4667C10.9619 22.5509 10.157 22.4841 9.36152 22.3107C9.52061 21.6163 9.71802 20.9161 9.95306 20.2132C10.5186 20.3215 11.0606 20.3552 11.4952 20.3077C11.7987 20.2745 12.0214 20.2199 12.1919 20.1444C12.3514 19.1217 12.5831 18.1115 12.8852 17.1215C12.3995 17.036 11.9232 16.8786 11.4627 16.6715C11.7991 16.0225 12.1611 15.387 12.5477 14.7665C12.828 14.8784 13.0954 14.9599 13.3242 14.9953C13.4528 15.015 13.5591 15.0261 13.6473 15.0278C13.8733 14.489 14.1143 13.963 14.3768 13.4528C15.0617 12.0823 15.8184 10.6368 16.3509 9.04746V9.04722ZM44.7285 9.04722C45.2607 10.6365 46.0175 12.0821 46.7026 13.4527C46.9673 13.9679 47.2117 14.4933 47.4353 15.0276C47.5227 15.0257 47.6281 15.0145 47.7547 14.9951C47.9846 14.9595 48.2535 14.8789 48.535 14.7663C48.9217 15.3868 49.2837 16.0223 49.6201 16.6714C49.1584 16.8788 48.6799 17.036 48.1941 17.1215C48.4917 18.0958 48.7251 19.1072 48.887 20.1442C49.0582 20.2206 49.2823 20.2743 49.5876 20.3077C50.0221 20.3553 50.5642 20.3216 51.1297 20.2133C51.3597 20.9037 51.5559 21.605 51.7176 22.3145C50.9237 22.4872 50.1195 22.551 49.3516 22.467C49.2752 22.4592 49.1991 22.4495 49.1232 22.438C49.1827 23.5925 49.1523 24.75 49.0324 25.8999C49.2356 26.1844 49.5834 26.4143 50.1176 26.6256C50.6943 26.8538 51.4486 26.9902 52.2549 27.0211C52.2534 27.7474 52.2135 28.473 52.1353 29.195C51.1459 29.1578 50.1835 28.985 49.3193 28.6434C49.0869 28.5506 48.8613 28.4413 48.6443 28.3166C48.4275 29.2989 48.1401 30.2643 47.7843 31.2052C47.8673 31.7533 48.225 32.2401 48.8875 32.7475C49.4569 33.1833 50.2351 33.5639 51.0976 33.8433C50.8603 34.533 50.5861 35.2074 50.2848 35.8682C49.2863 35.5344 48.3543 35.0714 47.5704 34.4713C47.2437 34.2217 46.9445 33.9382 46.6776 33.6255C46.212 34.4874 45.6883 35.3028 45.11 36.0641C45.0217 36.7239 45.276 37.3998 45.8613 38.1654C46.3453 38.7991 47.0589 39.4276 47.8896 39.9726C47.4603 40.5631 47.0036 41.1299 46.5252 41.6781C45.5973 41.0515 44.7733 40.3148 44.1374 39.4827C43.8079 39.0513 43.5296 38.5795 43.3246 38.0818C42.5454 38.834 41.7016 39.5027 40.8024 40.0777C40.3905 40.8015 40.4331 41.6529 40.8751 42.7267C41.2217 43.5686 41.8375 44.4728 42.6062 45.307C42.0176 45.7451 41.4098 46.1567 40.7845 46.5407C39.9713 45.6207 39.3035 44.611 38.8685 43.554C38.5766 42.8449 38.3985 42.0881 38.3784 41.3369C37.5011 41.6957 36.5908 41.968 35.6606 42.1498C35.2108 42.7629 35.0846 43.5809 35.2216 44.6391C35.3757 45.831 35.9276 47.2322 36.7274 48.5221C35.1047 49.1222 33.4419 49.5192 31.7849 49.676L31.9881 51.8388C34.0598 51.6429 36.1159 51.1286 38.0955 50.3401C38.9374 51.2723 39.879 52.0291 40.7699 52.4628C41.4731 52.805 42.0946 52.9656 42.6679 52.9164C44.1875 52.2808 45.6401 51.4955 47.0042 50.5722C45.3905 50.1635 43.8036 49.2608 42.4138 48.1116C43.0458 47.7047 43.661 47.2647 44.2609 46.8017C45.443 47.6847 46.7524 48.3259 47.8679 48.5435C48.5711 48.6808 49.1557 48.6812 49.6497 48.5145C51.1827 47.1454 52.5427 45.5941 53.6995 43.8951C51.9919 44.0025 50.1547 43.5427 48.4629 42.7629C48.9413 42.1924 49.3996 41.6029 49.8308 40.992C51.1425 41.5274 52.5177 41.8033 53.5979 41.7285C54.3374 41.6774 54.8945 41.5134 55.3069 41.1878C56.1476 39.5466 56.8036 37.8172 57.2629 36.0313C57.2239 36.0455 57.1859 36.0615 57.1467 36.0748C55.712 36.568 54.0552 36.6233 52.4328 36.3796C52.7285 35.6954 52.9925 34.9979 53.224 34.2894C54.4126 34.4087 55.5801 34.3161 56.4392 34.0208C57.1086 33.7909 57.5598 33.5035 57.829 33.0991C58.0608 31.3318 58.1023 29.5446 57.9525 27.7684C57.9475 27.7716 57.943 27.7759 57.938 27.7793C56.8964 28.4654 55.619 28.8805 54.2945 29.0748C54.3599 28.343 54.3939 27.6015 54.3888 26.8539C55.3085 26.6702 56.155 26.3526 56.7438 25.9648C57.161 25.69 57.4342 25.4301 57.5895 25.1482C57.2547 23.4072 56.7327 21.7076 56.0325 20.0788C55.4116 20.7256 54.6236 21.2354 53.7609 21.6284C53.5918 20.9121 53.3908 20.2037 53.1585 19.5054C53.7164 19.2136 54.1968 18.8709 54.5048 18.5401C54.7617 18.2642 54.8999 18.0582 54.9476 17.8689C54.258 16.6244 53.4639 15.4407 52.574 14.3306C52.2672 14.7714 51.8854 15.1644 51.4602 15.5174C51.117 14.8601 50.749 14.2161 50.357 13.5867C50.6134 13.3352 50.816 13.0804 50.9339 12.8679C50.9964 12.7553 51.0407 12.6756 51.0681 12.6104C50.8229 12.3561 50.5725 12.1068 50.3171 11.8629C48.3554 10.4234 46.7633 9.70297 44.7286 9.04688L44.7285 9.04722ZM18.4662 16.1235L21.264 31.1868H40.3194L42.9793 16.7295L36.2515 24.1033L31.0296 16.3014L25.804 24.1034L18.4664 16.1237L18.4662 16.1235ZM21.6669 33.3569L22.0806 35.5885H39.51L39.9203 33.3568H21.6671L21.6669 33.3569Z" fill="#FB5D2C"/>
<path d="M16.3509 9.04722C14.3162 9.70332 12.7241 10.4237 10.7624 11.8632C10.5081 12.106 10.2588 12.354 10.0146 12.6071C10.0425 12.6728 10.0854 12.754 10.149 12.8684C10.2669 13.0811 10.4703 13.3355 10.7261 13.5872C10.334 14.2164 9.96603 14.8604 9.62292 15.5176C9.19744 15.1646 8.81563 14.7718 8.50883 14.3308C7.61917 15.4399 6.82522 16.6224 6.1355 17.8656C6.18137 18.0556 6.31631 18.2628 6.57445 18.5403C6.88287 18.8716 7.36467 19.2138 7.9245 19.5058C7.68946 20.2161 7.48787 20.9229 7.32228 21.6285C6.45833 21.236 5.66811 20.7264 5.04696 20.0791C4.34668 21.7078 3.82472 23.4075 3.49021 25.1485C3.64524 25.4312 3.9215 25.69 4.33931 25.9651C4.92828 26.353 5.77459 26.6707 6.69452 26.8543C6.68929 27.6018 6.72355 28.3432 6.78881 29.075C5.46419 28.8807 4.18707 28.4656 3.14544 27.7795C3.13964 27.7756 3.13313 27.7726 3.12733 27.7686C2.97856 29.545 3.02112 31.3321 3.25425 33.0994C3.5225 33.5035 3.97143 33.7911 4.64042 34.0212C5.50042 34.3168 6.66932 34.4095 7.85935 34.2896C8.0916 35.0006 8.35578 35.6982 8.65015 36.3799C7.02791 36.6235 5.37118 36.5682 3.93636 36.075C3.89723 36.0616 3.85914 36.0458 3.82024 36.0315C4.27949 37.8174 4.9355 39.5468 5.77622 41.1881C6.1888 41.5137 6.74585 41.6776 7.48555 41.7287C8.5655 41.8035 9.94086 41.5278 11.2524 40.9922C11.6824 41.6012 12.1376 42.192 12.6168 42.763C10.9249 43.5428 9.09131 44.0027 7.38394 43.8952C8.53976 45.5928 9.89855 47.1429 11.4301 48.5112C11.9248 48.6791 12.5101 48.6813 13.2154 48.5437C14.3302 48.3262 15.6372 47.6839 16.8187 46.8018C16.8197 46.8024 16.8217 46.8012 16.8224 46.8018C17.4194 47.2631 18.0357 47.699 18.6695 48.1082C17.2788 49.259 15.6938 50.1631 14.0791 50.5723C15.4434 51.4954 16.896 52.2806 18.4155 52.9164C18.9888 52.9655 19.6105 52.8049 20.3135 52.4628C21.2044 52.0291 22.1459 51.2723 22.9878 50.3401C24.9661 51.1278 27.021 51.643 29.0916 51.8387L29.2983 49.6759C27.6414 49.5191 25.979 49.122 24.3558 48.5218C25.1551 47.2319 25.704 45.8309 25.8585 44.639C25.9953 43.5807 25.8681 42.7628 25.4193 42.1496C24.481 41.9661 23.5741 41.692 22.7049 41.3367C22.6849 42.088 22.5068 42.8448 22.2149 43.554C21.78 44.611 21.1094 45.6207 20.2953 46.5407C19.6712 46.1567 19.0645 45.745 18.4772 45.3068C19.2459 44.4728 19.8617 43.5685 20.2081 42.7266C20.6501 41.6529 20.6927 40.8015 20.2807 40.0778C19.381 39.5022 18.5385 38.831 17.7587 38.0782C17.5529 38.5775 17.2725 39.0501 16.9422 39.4826C16.3063 40.3146 15.4823 41.0514 14.5543 41.6779C14.0759 41.1298 13.6193 40.5627 13.1899 39.9723C14.0204 39.4272 14.7339 38.7994 15.2186 38.1651C15.8036 37.3994 16.057 36.7241 15.9696 36.064C15.3852 35.2927 14.8611 34.4774 14.402 33.6254C14.1363 33.9379 13.8382 34.2214 13.5128 34.4711C12.7281 35.0721 11.7944 35.5343 10.7948 35.8681C10.4935 35.2074 10.2192 34.5329 9.98197 33.8433C10.8444 33.564 11.6228 33.1833 12.1918 32.7474C12.8532 32.2409 13.2139 31.7551 13.2987 31.2088C12.9426 30.2666 12.6552 29.3 12.4387 28.3164C12.2218 28.4412 11.9962 28.5503 11.7638 28.643C10.8986 28.9852 9.93482 29.1579 8.94429 29.1946C8.86586 28.4726 8.82582 27.747 8.82434 27.0208C9.63221 26.9902 10.3878 26.8539 10.9657 26.6254C11.4998 26.414 11.8476 26.1841 12.0506 25.8996C11.9295 24.7498 11.8979 23.5923 11.9562 22.4376C11.8807 22.4497 11.8064 22.4585 11.7311 22.4667C10.9619 22.5509 10.157 22.4841 9.36152 22.3107C9.52061 21.6163 9.71802 20.9161 9.95306 20.2132C10.5186 20.3215 11.0606 20.3552 11.4952 20.3077C11.7987 20.2745 12.0214 20.2199 12.1919 20.1444C12.3514 19.1217 12.5831 18.1115 12.8852 17.1215C12.3995 17.036 11.9232 16.8786 11.4627 16.6715C11.7991 16.0225 12.1611 15.387 12.5477 14.7665C12.828 14.8784 13.0954 14.9599 13.3242 14.9953C13.4528 15.015 13.5591 15.0261 13.6473 15.0278C13.8733 14.489 14.1143 13.963 14.3768 13.4528C15.0617 12.0823 15.8184 10.6368 16.3509 9.04746V9.04722ZM44.7285 9.04722C45.2607 10.6365 46.0175 12.0821 46.7026 13.4527C46.9673 13.9679 47.2117 14.4933 47.4353 15.0276C47.5227 15.0257 47.6281 15.0145 47.7547 14.9951C47.9846 14.9595 48.2535 14.8789 48.535 14.7663C48.9217 15.3868 49.2837 16.0223 49.6201 16.6714C49.1584 16.8788 48.6799 17.036 48.1941 17.1215C48.4917 18.0958 48.7251 19.1072 48.887 20.1442C49.0582 20.2206 49.2823 20.2743 49.5876 20.3077C50.0221 20.3553 50.5642 20.3216 51.1297 20.2133C51.3597 20.9037 51.5559 21.605 51.7176 22.3145C50.9237 22.4872 50.1195 22.551 49.3516 22.467C49.2752 22.4592 49.1991 22.4495 49.1232 22.438C49.1827 23.5925 49.1523 24.75 49.0324 25.8999C49.2356 26.1844 49.5834 26.4143 50.1176 26.6256C50.6943 26.8538 51.4486 26.9902 52.2549 27.0211C52.2534 27.7474 52.2135 28.473 52.1353 29.195C51.1459 29.1578 50.1835 28.985 49.3193 28.6434C49.0869 28.5506 48.8613 28.4413 48.6443 28.3166C48.4275 29.2989 48.1401 30.2643 47.7843 31.2052C47.8673 31.7533 48.225 32.2401 48.8875 32.7475C49.4569 33.1833 50.2351 33.5639 51.0976 33.8433C50.8603 34.533 50.5861 35.2074 50.2848 35.8682C49.2863 35.5344 48.3543 35.0714 47.5704 34.4713C47.2437 34.2217 46.9445 33.9382 46.6776 33.6255C46.212 34.4874 45.6883 35.3028 45.11 36.0641C45.0217 36.7239 45.276 37.3998 45.8613 38.1654C46.3453 38.7991 47.0589 39.4276 47.8896 39.9726C47.4603 40.5631 47.0036 41.1299 46.5252 41.6781C45.5973 41.0515 44.7733 40.3148 44.1374 39.4827C43.8079 39.0513 43.5296 38.5795 43.3246 38.0818C42.5454 38.834 41.7016 39.5027 40.8024 40.0777C40.3905 40.8015 40.4331 41.6529 40.8751 42.7267C41.2217 43.5686 41.8375 44.4728 42.6062 45.307C42.0176 45.7451 41.4098 46.1567 40.7845 46.5407C39.9713 45.6207 39.3035 44.611 38.8685 43.554C38.5766 42.8449 38.3985 42.0881 38.3784 41.3369C37.5011 41.6957 36.5908 41.968 35.6606 42.1498C35.2108 42.7629 35.0846 43.5809 35.2216 44.6391C35.3757 45.831 35.9276 47.2322 36.7274 48.5221C35.1047 49.1222 33.4419 49.5192 31.7849 49.676L31.9881 51.8388C34.0598 51.6429 36.1159 51.1286 38.0955 50.3401C38.9374 51.2723 39.879 52.0291 40.7699 52.4628C41.4731 52.805 42.0946 52.9656 42.6679 52.9164C44.1875 52.2808 45.6401 51.4955 47.0042 50.5722C45.3905 50.1635 43.8036 49.2608 42.4138 48.1116C43.0458 47.7047 43.661 47.2647 44.2609 46.8017C45.443 47.6847 46.7524 48.3259 47.8679 48.5435C48.5711 48.6808 49.1557 48.6812 49.6497 48.5145C51.1827 47.1454 52.5427 45.5941 53.6995 43.8951C51.9919 44.0025 50.1547 43.5427 48.4629 42.7629C48.9413 42.1924 49.3996 41.6029 49.8308 40.992C51.1425 41.5274 52.5177 41.8033 53.5979 41.7285C54.3374 41.6774 54.8945 41.5134 55.3069 41.1878C56.1476 39.5466 56.8036 37.8172 57.2629 36.0313C57.2239 36.0455 57.1859 36.0615 57.1467 36.0748C55.712 36.568 54.0552 36.6233 52.4328 36.3796C52.7285 35.6954 52.9925 34.9979 53.224 34.2894C54.4126 34.4087 55.5801 34.3161 56.4392 34.0208C57.1086 33.7909 57.5598 33.5035 57.829 33.0991C58.0608 31.3318 58.1023 29.5446 57.9525 27.7684C57.9475 27.7716 57.943 27.7759 57.938 27.7793C56.8964 28.4654 55.619 28.8805 54.2945 29.0748C54.3599 28.343 54.3939 27.6015 54.3888 26.8539C55.3085 26.6702 56.155 26.3526 56.7438 25.9648C57.161 25.69 57.4342 25.4301 57.5895 25.1482C57.2547 23.4072 56.7327 21.7076 56.0325 20.0788C55.4116 20.7256 54.6236 21.2354 53.7609 21.6284C53.5918 20.9121 53.3908 20.2037 53.1585 19.5054C53.7164 19.2136 54.1968 18.8709 54.5048 18.5401C54.7617 18.2642 54.8999 18.0582 54.9476 17.8689C54.258 16.6244 53.4639 15.4407 52.574 14.3306C52.2672 14.7714 51.8854 15.1644 51.4602 15.5174C51.117 14.8601 50.749 14.2161 50.357 13.5867C50.6134 13.3352 50.816 13.0804 50.9339 12.8679C50.9964 12.7553 51.0407 12.6756 51.0681 12.6104C50.8229 12.3561 50.5725 12.1068 50.3171 11.8629C48.3554 10.4234 46.7633 9.70297 44.7286 9.04688L44.7285 9.04722ZM18.4662 16.1235L21.264 31.1868H40.3194L42.9793 16.7295L36.2515 24.1033L31.0296 16.3014L25.804 24.1034L18.4664 16.1237L18.4662 16.1235ZM21.6669 33.3569L22.0806 35.5885H39.51L39.9203 33.3568H21.6671L21.6669 33.3569Z" fill="url(#paint0_linear_295_1278)" fill-opacity="0.2"/>
<defs>
<linearGradient id="paint0_linear_295_1278" x1="30.5405" y1="9.04687" x2="30.5405" y2="52.9251" gradientUnits="userSpaceOnUse">
<stop/>
<stop offset="1" stop-opacity="0"/>
</linearGradient>
</defs>
</svg>
