<svg width="61" height="61" viewBox="0 0 61 61" fill="none" xmlns="http://www.w3.org/2000/svg">
<path d="M56.1389 5.17486C55.9725 5.00852 55.7981 4.85035 55.6163 4.70093C55.2506 4.39925 54.8574 4.13887 54.4376 3.91103C54.2276 3.79706 54.0273 3.68869 53.8056 3.59508C53.8006 3.59285 53.7861 3.5973 53.7814 3.59508C53.5643 3.50392 53.34 3.4103 53.113 3.33997C53.1088 3.33822 53.0937 3.34149 53.0888 3.33997C52.8617 3.26999 52.644 3.2178 52.4082 3.1697C52.4023 3.16865 52.3895 3.17087 52.3839 3.1697C52.1479 3.12208 51.9228 3.07293 51.6791 3.04824C51.6732 3.04789 51.6604 3.04882 51.6548 3.04824C51.4085 3.02388 51.1611 3.01169 50.9136 3.01173C50.9077 3.01137 50.9068 3.0239 50.9014 3.0239C50.6538 3.02388 50.4064 3.03606 50.1601 3.06041C50.1542 3.06076 50.1533 3.04765 50.148 3.04824C49.9044 3.0734 49.6549 3.12161 49.4189 3.1697C49.4138 3.17029 49.4 3.16865 49.3946 3.1697C49.1588 3.21839 48.9411 3.26952 48.714 3.33985C48.7082 3.34149 48.695 3.33822 48.6898 3.33985C48.4628 3.41077 48.2386 3.50345 48.0214 3.59496C48.0164 3.5973 48.0138 3.60502 48.0092 3.60725C47.7923 3.69923 47.5833 3.78746 47.3773 3.89886C47.2953 3.94322 47.2145 3.9974 47.1344 4.04467C46.8027 4.24057 46.4823 4.45752 46.1865 4.70093C46.0031 4.85177 45.8441 5.01946 45.6761 5.18703C45.3379 5.52452 45.0209 5.88319 44.7525 6.28072C44.0483 7.32384 43.5973 8.55912 43.5009 9.88977L43.5616 9.85337C43.6242 9.8164 43.6918 9.76643 43.756 9.73179C43.9168 9.64484 44.0726 9.56059 44.2421 9.48874C44.2463 9.4871 44.2626 9.49049 44.2664 9.48874C44.436 9.41735 44.6116 9.36189 44.7889 9.30653C44.9662 9.25153 45.1517 9.21081 45.3358 9.1729C45.34 9.17173 45.3434 9.16178 45.3479 9.16073C45.5322 9.12304 45.7168 9.08314 45.9069 9.06348C46.0971 9.04382 46.3072 9.05178 46.5023 9.05131L46.5145 9.03914C46.7099 9.03914 46.8831 9.04464 47.0735 9.06348H47.0977C47.288 9.08279 47.4846 9.13568 47.6688 9.1729C47.6731 9.17395 47.6765 9.15956 47.6811 9.16073C47.8651 9.19817 48.0385 9.252 48.2158 9.30653C48.22 9.30712 48.2362 9.30548 48.24 9.30653C48.4173 9.36153 48.581 9.42988 48.7504 9.50091C48.7547 9.50266 48.7589 9.4871 48.7626 9.48885C48.9365 9.56159 49.1068 9.6427 49.2729 9.73191C49.3785 9.78913 49.4744 9.85115 49.5767 9.91411L39.0652 20.4257C37.2223 18.9202 34.9591 17.8954 32.4789 17.582V9.29436C34.8714 10.0021 36.6226 12.2 36.6226 14.8236C36.6226 14.9034 36.6284 14.9874 36.6226 15.0666C37.6785 13.75 38.2531 12.1123 38.2511 10.4246C38.2511 6.32846 34.9221 3.0239 30.8261 3.0239C26.73 3.0239 23.4256 6.32858 23.4256 10.4246C23.4256 12.1857 24.0182 13.8049 25.0417 15.0787C25.0367 14.994 25.0296 14.9093 25.0296 14.8236C25.0296 12.2 26.781 10.0021 29.1734 9.29436V17.582C26.6931 17.8954 24.43 18.9202 22.5871 20.4257L12.0876 9.92628C12.1238 9.90451 12.1603 9.88719 12.197 9.86543C12.2596 9.82857 12.3149 9.76643 12.3792 9.73191C12.5455 9.64303 12.7158 9.56193 12.8896 9.48885C12.8947 9.4871 12.898 9.50266 12.9018 9.50091C13.0715 9.42952 13.2347 9.36189 13.4121 9.30653C13.4172 9.30595 13.432 9.30759 13.4365 9.30653C13.6137 9.25153 13.7869 9.19864 13.9711 9.16073C13.977 9.16014 13.9787 9.17395 13.9833 9.1729C14.1676 9.13522 14.3643 9.08314 14.5544 9.06348H14.5787C14.7734 9.04382 14.9499 9.05131 15.1498 9.05131C15.3452 9.05131 15.5549 9.04464 15.7453 9.06348C15.9357 9.08232 16.1198 9.12351 16.3043 9.16061C16.3102 9.16131 16.3119 9.17173 16.3164 9.1729C16.5004 9.21034 16.6859 9.252 16.8633 9.30653C17.0405 9.36153 17.2162 9.4177 17.3858 9.48874C17.3908 9.49049 17.4062 9.4871 17.41 9.48874C17.583 9.56187 17.7323 9.64285 17.8963 9.73179C17.9769 9.77556 18.0607 9.83067 18.1393 9.8776C18.1144 9.55519 18.0697 9.23461 18.0056 8.91767C17.907 8.43508 17.7554 7.97553 17.5681 7.53226C17.3802 7.0891 17.1669 6.67461 16.8997 6.2806C16.6315 5.88319 16.3146 5.52429 15.9762 5.18692C15.8082 5.01958 15.6493 4.85153 15.4658 4.70093C15.0953 4.39622 14.6966 4.12764 14.2749 3.89886C14.0651 3.78489 13.8646 3.70075 13.643 3.60725C13.638 3.60491 13.6354 3.5973 13.6308 3.59508C13.4136 3.50392 13.1895 3.4103 12.9625 3.33985C12.9575 3.3381 12.9431 3.34149 12.9382 3.33985C12.7112 3.26999 12.4933 3.2178 12.2577 3.1697C12.2527 3.16912 12.2387 3.17087 12.2334 3.1697C11.9973 3.12208 11.7478 3.07281 11.5043 3.04812C11.4985 3.04753 11.4975 3.06099 11.4922 3.06029C11.2458 3.03597 10.9984 3.02382 10.7508 3.0239C10.4949 3.0239 10.2468 3.02273 9.99744 3.04812C9.99159 3.0487 9.97848 3.04753 9.9731 3.04812C9.72934 3.0734 9.50454 3.12149 9.26828 3.1697C9.26243 3.17029 9.24955 3.16853 9.24405 3.1697C9.00837 3.21839 8.7906 3.26941 8.56346 3.33985C8.55761 3.34149 8.54415 3.3381 8.53924 3.33985C8.31198 3.41077 8.088 3.50345 7.87093 3.59496C7.86508 3.59718 7.85103 3.59274 7.84659 3.59496C7.6294 3.68706 7.42051 3.79951 7.21467 3.91092C7.13252 3.95527 7.0519 4.00945 6.97162 4.05673C6.6401 4.25274 6.33198 4.45752 6.03592 4.70081C5.85422 4.85028 5.67985 5.00845 5.51342 5.17475C5.00718 5.67946 4.56905 6.24257 4.22525 6.876C3.63508 7.96562 3.32606 9.18526 3.32617 10.4244C3.32617 10.6805 3.34946 10.9284 3.37474 11.1778C3.47619 12.1753 3.75576 13.1192 4.21319 13.9606C4.55712 14.5955 4.9949 15.1558 5.50136 15.6621C6.1733 16.3339 6.9708 16.89 7.85887 17.266C8.30148 17.4526 8.76141 17.5951 9.232 17.6913C9.54889 17.756 9.86954 17.8006 10.192 17.825C10.1442 17.7472 10.0899 17.6628 10.0462 17.5819C9.68897 16.9249 9.45715 16.2099 9.37781 15.4311C9.35792 15.2364 9.35359 15.0234 9.35359 14.8235C9.35439 13.8557 9.59661 12.9034 10.0583 12.0528C10.1115 11.9536 10.1683 11.8563 10.2286 11.7612L20.74 22.2726C19.2345 24.1156 18.2098 26.3788 17.8964 28.859H9.60893C10.3166 26.4665 12.5146 24.7152 15.1381 24.7153C15.2178 24.7153 15.302 24.7119 15.3811 24.7152C14.0645 23.6593 12.4267 23.0848 10.739 23.0868C6.64279 23.0868 3.33834 26.4156 3.33834 30.5118C3.33834 34.6081 6.64279 37.9123 10.739 37.9123C12.5002 37.9123 14.1195 37.3197 15.3933 36.2961C15.3084 36.2999 15.2236 36.3083 15.1381 36.3083C12.5144 36.3083 10.3166 34.5569 9.60881 32.1643H17.8965C18.2099 34.6447 19.2346 36.9079 20.7401 38.7507L10.2286 49.2623C10.1642 49.1632 10.1034 49.0619 10.0464 48.9585C9.68897 48.3014 9.45715 47.5379 9.37793 46.759C9.35803 46.5642 9.36576 46.3876 9.36576 46.1879C9.36576 45.1883 9.59968 44.2367 10.0464 43.4172C10.0853 43.345 10.1376 43.2804 10.18 43.2105C10.1175 43.215 10.0599 43.2164 9.99767 43.2227C9.99182 43.2233 9.991 43.2101 9.9855 43.2105C9.74186 43.2358 9.49261 43.2839 9.25646 43.3321C9.25049 43.3327 9.23774 43.3309 9.23212 43.3321C8.99644 43.3808 8.77866 43.4318 8.55152 43.5023C8.54567 43.5039 8.53221 43.5005 8.5273 43.5023C8.30004 43.5732 8.07607 43.6659 7.85887 43.7574C7.85302 43.7596 7.85127 43.7673 7.8467 43.7695C7.62951 43.8615 7.42075 43.9497 7.21479 44.0612C7.13264 44.1055 7.05213 44.1597 6.97185 44.207C6.43473 44.5243 5.95248 44.9117 5.51353 45.3493C5.00742 45.8539 4.56929 46.417 4.22548 47.0506C3.6536 48.1001 3.33846 49.3067 3.33846 50.5867C3.33846 50.8428 3.33752 51.0909 3.36268 51.3403C3.46414 52.3377 3.76804 53.2815 4.22548 54.1231C4.56929 54.7578 5.00718 55.3181 5.51353 55.8244C6.18559 56.4963 6.98309 57.0524 7.87104 57.4284C8.31369 57.615 8.77366 57.7574 9.24429 57.8536C9.73587 57.9566 10.2366 58.0096 10.7389 58.0117C10.9947 58.0117 11.2427 57.9886 11.4923 57.9632C11.4981 57.9626 11.4991 57.9759 11.5044 57.9753C11.748 57.9499 11.9976 57.9022 12.2335 57.8539C12.2394 57.8533 12.2523 57.8549 12.2578 57.8539C12.7347 57.7549 13.192 57.6143 13.6309 57.4285C13.6368 57.4263 13.6386 57.4185 13.6431 57.4163C14.0862 57.2277 14.5009 57.0154 14.8948 56.7481C15.092 56.6145 15.2709 56.4619 15.4538 56.3105C15.6355 56.161 15.8098 56.0028 15.9763 55.8365C16.3151 55.4982 16.6203 55.1279 16.8878 54.7307C17.1549 54.3357 17.3926 53.9231 17.5804 53.4791C17.7677 53.0352 17.9071 52.5646 18.0057 52.0817C18.0686 51.7741 18.1268 51.4539 18.1516 51.1338C17.917 51.277 17.6658 51.4259 17.4103 51.5348C17.4052 51.5365 17.3898 51.5331 17.386 51.5348C17.0433 51.6799 16.6891 51.7736 16.3166 51.8508C16.3107 51.8514 16.309 51.8618 16.3044 51.863C16.12 51.9006 15.9356 51.9403 15.7454 51.9601C15.5507 51.98 15.3376 51.9844 15.1378 51.9844C14.7459 51.9833 14.355 51.9426 13.9712 51.8628C13.5985 51.7864 13.2445 51.6671 12.9019 51.5227C12.619 51.4041 12.3466 51.2618 12.0877 51.0973L22.5871 40.598C24.4299 42.1034 26.6931 43.1283 29.1735 43.4416V51.7292C26.781 51.0174 25.0418 48.8114 25.0417 46.1879C25.0417 46.1055 25.0384 46.0264 25.0417 45.9448C24.0189 47.2148 23.4133 48.8263 23.4133 50.587C23.4133 54.6829 26.7302 57.9997 30.8262 57.9997C34.9222 57.9997 38.2511 54.6708 38.2511 50.5748C38.2511 48.8224 37.6406 47.2242 36.6227 45.957C36.6277 46.0327 36.6104 46.1115 36.6104 46.1879C36.6104 48.8114 34.8712 51.0174 32.4787 51.7292V43.4414C34.9591 43.128 37.2222 42.1033 39.0652 40.5978L49.5646 51.0972C49.3106 51.2601 49.0415 51.4158 48.7625 51.5347C48.7583 51.5364 48.7541 51.5209 48.7503 51.5225C48.4077 51.6677 48.0535 51.7855 47.681 51.8627C47.6768 51.8639 47.6734 51.8495 47.6688 51.8506C47.4845 51.8884 47.2879 51.9402 47.0977 51.96H47.0734C46.8831 51.9794 46.7097 51.984 46.5144 51.9843C46.1101 51.9843 45.7168 51.9297 45.3356 51.8507C44.963 51.7743 44.6089 51.6791 44.2663 51.5347C44.0049 51.424 43.7522 51.2687 43.5129 51.1216C43.6088 52.4518 44.0575 53.6849 44.7645 54.7307C45.032 55.1278 45.3372 55.4981 45.6759 55.8365C46.348 56.5086 47.1333 57.0524 48.0213 57.4284C48.4639 57.615 48.9239 57.7575 49.3945 57.8537C49.8941 57.9579 50.4031 58.0108 50.9135 58.0117C51.1635 58.0111 51.411 58 51.6548 57.9752C51.6606 57.9749 51.6735 57.9758 51.679 57.9752C51.9226 57.9499 52.1478 57.9021 52.3838 57.8537C52.3889 57.8532 52.4028 57.8548 52.4082 57.8537C52.8852 57.7547 53.3425 57.6142 53.7813 57.4285C53.7863 57.4262 53.8007 57.4306 53.8055 57.4285C54.2486 57.2397 54.6633 57.0031 55.0572 56.7357C55.2543 56.6032 55.4449 56.4613 55.6284 56.3105C55.8117 56.159 55.9708 55.9924 56.1388 55.8244C57.4837 54.4797 58.314 52.6394 58.314 50.5868C58.314 50.3308 58.3152 50.0827 58.2897 49.8333C58.1627 48.5871 57.7298 47.428 57.0623 46.443C55.8246 44.6097 53.7869 43.3508 51.4481 43.1863C51.8834 43.9006 52.1854 44.7185 52.2743 45.5923C52.2942 45.787 52.2866 45.9879 52.2866 46.1879C52.2866 47.3142 51.9552 48.3519 51.3995 49.2379L40.9122 38.7507C42.4177 36.9079 43.4425 34.6447 43.7559 32.1644H52.0435C51.3316 34.5569 49.1256 36.2961 46.5022 36.2961C46.4198 36.2961 46.3406 36.2994 46.2591 36.2961C47.5291 37.3189 49.1406 37.9244 50.9013 37.9244C54.9973 37.9244 58.3139 34.6077 58.3139 30.5117C58.3139 26.4157 54.9851 23.0867 50.889 23.0867C49.1366 23.0867 47.5384 23.6973 46.2713 24.7152C46.3469 24.7124 46.4258 24.7274 46.5022 24.7274C49.1256 24.7274 51.3317 26.4665 52.0435 28.859H43.7559C43.4425 26.3788 42.4176 24.1156 40.9122 22.2726L51.4116 11.7733C51.9651 12.6584 52.2986 13.7022 52.2986 14.8235C52.2986 15.9235 51.9819 16.9611 51.4481 17.8372C51.8351 17.8049 52.2206 17.729 52.5904 17.6427C52.7721 17.6003 52.9365 17.5646 53.1129 17.509C53.8066 17.2907 54.4676 16.9856 55.0573 16.5855C55.2542 16.4521 55.4334 16.2994 55.6162 16.1481C55.802 15.9945 55.9804 15.8323 56.151 15.662C56.4856 15.3276 56.7868 14.9613 57.0502 14.5683C57.8512 13.3832 58.3262 11.9603 58.3262 10.4244C58.3262 8.88853 57.8512 7.46263 57.0502 6.2806C56.7827 5.88347 56.4775 5.51313 56.1388 5.17475L56.1389 5.17486ZM35.0914 26.2463C36.1834 27.3381 36.8535 28.8472 36.8535 30.5117C36.8535 33.8405 34.155 36.539 30.8261 36.539C27.4972 36.539 24.7986 33.8405 24.7986 30.5116C24.7986 27.1827 27.4972 24.4843 30.8261 24.4842C32.4904 24.4842 33.9994 25.1544 35.0915 26.2463" fill="#FB5D2C"/>
<path d="M56.1389 5.17486C55.9725 5.00852 55.7981 4.85035 55.6163 4.70093C55.2506 4.39925 54.8574 4.13887 54.4376 3.91103C54.2276 3.79706 54.0273 3.68869 53.8056 3.59508C53.8006 3.59285 53.7861 3.5973 53.7814 3.59508C53.5643 3.50392 53.34 3.4103 53.113 3.33997C53.1088 3.33822 53.0937 3.34149 53.0888 3.33997C52.8617 3.26999 52.644 3.2178 52.4082 3.1697C52.4023 3.16865 52.3895 3.17087 52.3839 3.1697C52.1479 3.12208 51.9228 3.07293 51.6791 3.04824C51.6732 3.04789 51.6604 3.04882 51.6548 3.04824C51.4085 3.02388 51.1611 3.01169 50.9136 3.01173C50.9077 3.01137 50.9068 3.0239 50.9014 3.0239C50.6538 3.02388 50.4064 3.03606 50.1601 3.06041C50.1542 3.06076 50.1533 3.04765 50.148 3.04824C49.9044 3.0734 49.6549 3.12161 49.4189 3.1697C49.4138 3.17029 49.4 3.16865 49.3946 3.1697C49.1588 3.21839 48.9411 3.26952 48.714 3.33985C48.7082 3.34149 48.695 3.33822 48.6898 3.33985C48.4628 3.41077 48.2386 3.50345 48.0214 3.59496C48.0164 3.5973 48.0138 3.60502 48.0092 3.60725C47.7923 3.69923 47.5833 3.78746 47.3773 3.89886C47.2953 3.94322 47.2145 3.9974 47.1344 4.04467C46.8027 4.24057 46.4823 4.45752 46.1865 4.70093C46.0031 4.85177 45.8441 5.01946 45.6761 5.18703C45.3379 5.52452 45.0209 5.88319 44.7525 6.28072C44.0483 7.32384 43.5973 8.55912 43.5009 9.88977L43.5616 9.85337C43.6242 9.8164 43.6918 9.76643 43.756 9.73179C43.9168 9.64484 44.0726 9.56059 44.2421 9.48874C44.2463 9.4871 44.2626 9.49049 44.2664 9.48874C44.436 9.41735 44.6116 9.36189 44.7889 9.30653C44.9662 9.25153 45.1517 9.21081 45.3358 9.1729C45.34 9.17173 45.3434 9.16178 45.3479 9.16073C45.5322 9.12304 45.7168 9.08314 45.9069 9.06348C46.0971 9.04382 46.3072 9.05178 46.5023 9.05131L46.5145 9.03914C46.7099 9.03914 46.8831 9.04464 47.0735 9.06348H47.0977C47.288 9.08279 47.4846 9.13568 47.6688 9.1729C47.6731 9.17395 47.6765 9.15956 47.6811 9.16073C47.8651 9.19817 48.0385 9.252 48.2158 9.30653C48.22 9.30712 48.2362 9.30548 48.24 9.30653C48.4173 9.36153 48.581 9.42988 48.7504 9.50091C48.7547 9.50266 48.7589 9.4871 48.7626 9.48885C48.9365 9.56159 49.1068 9.6427 49.2729 9.73191C49.3785 9.78913 49.4744 9.85115 49.5767 9.91411L39.0652 20.4257C37.2223 18.9202 34.9591 17.8954 32.4789 17.582V9.29436C34.8714 10.0021 36.6226 12.2 36.6226 14.8236C36.6226 14.9034 36.6284 14.9874 36.6226 15.0666C37.6785 13.75 38.2531 12.1123 38.2511 10.4246C38.2511 6.32846 34.9221 3.0239 30.8261 3.0239C26.73 3.0239 23.4256 6.32858 23.4256 10.4246C23.4256 12.1857 24.0182 13.8049 25.0417 15.0787C25.0367 14.994 25.0296 14.9093 25.0296 14.8236C25.0296 12.2 26.781 10.0021 29.1734 9.29436V17.582C26.6931 17.8954 24.43 18.9202 22.5871 20.4257L12.0876 9.92628C12.1238 9.90451 12.1603 9.88719 12.197 9.86543C12.2596 9.82857 12.3149 9.76643 12.3792 9.73191C12.5455 9.64303 12.7158 9.56193 12.8896 9.48885C12.8947 9.4871 12.898 9.50266 12.9018 9.50091C13.0715 9.42952 13.2347 9.36189 13.4121 9.30653C13.4172 9.30595 13.432 9.30759 13.4365 9.30653C13.6137 9.25153 13.7869 9.19864 13.9711 9.16073C13.977 9.16014 13.9787 9.17395 13.9833 9.1729C14.1676 9.13522 14.3643 9.08314 14.5544 9.06348H14.5787C14.7734 9.04382 14.9499 9.05131 15.1498 9.05131C15.3452 9.05131 15.5549 9.04464 15.7453 9.06348C15.9357 9.08232 16.1198 9.12351 16.3043 9.16061C16.3102 9.16131 16.3119 9.17173 16.3164 9.1729C16.5004 9.21034 16.6859 9.252 16.8633 9.30653C17.0405 9.36153 17.2162 9.4177 17.3858 9.48874C17.3908 9.49049 17.4062 9.4871 17.41 9.48874C17.583 9.56187 17.7323 9.64285 17.8963 9.73179C17.9769 9.77556 18.0607 9.83067 18.1393 9.8776C18.1144 9.55519 18.0697 9.23461 18.0056 8.91767C17.907 8.43508 17.7554 7.97553 17.5681 7.53226C17.3802 7.0891 17.1669 6.67461 16.8997 6.2806C16.6315 5.88319 16.3146 5.52429 15.9762 5.18692C15.8082 5.01958 15.6493 4.85153 15.4658 4.70093C15.0953 4.39622 14.6966 4.12764 14.2749 3.89886C14.0651 3.78489 13.8646 3.70075 13.643 3.60725C13.638 3.60491 13.6354 3.5973 13.6308 3.59508C13.4136 3.50392 13.1895 3.4103 12.9625 3.33985C12.9575 3.3381 12.9431 3.34149 12.9382 3.33985C12.7112 3.26999 12.4933 3.2178 12.2577 3.1697C12.2527 3.16912 12.2387 3.17087 12.2334 3.1697C11.9973 3.12208 11.7478 3.07281 11.5043 3.04812C11.4985 3.04753 11.4975 3.06099 11.4922 3.06029C11.2458 3.03597 10.9984 3.02382 10.7508 3.0239C10.4949 3.0239 10.2468 3.02273 9.99744 3.04812C9.99159 3.0487 9.97848 3.04753 9.9731 3.04812C9.72934 3.0734 9.50454 3.12149 9.26828 3.1697C9.26243 3.17029 9.24955 3.16853 9.24405 3.1697C9.00837 3.21839 8.7906 3.26941 8.56346 3.33985C8.55761 3.34149 8.54415 3.3381 8.53924 3.33985C8.31198 3.41077 8.088 3.50345 7.87093 3.59496C7.86508 3.59718 7.85103 3.59274 7.84659 3.59496C7.6294 3.68706 7.42051 3.79951 7.21467 3.91092C7.13252 3.95527 7.0519 4.00945 6.97162 4.05673C6.6401 4.25274 6.33198 4.45752 6.03592 4.70081C5.85422 4.85028 5.67985 5.00845 5.51342 5.17475C5.00718 5.67946 4.56905 6.24257 4.22525 6.876C3.63508 7.96562 3.32606 9.18526 3.32617 10.4244C3.32617 10.6805 3.34946 10.9284 3.37474 11.1778C3.47619 12.1753 3.75576 13.1192 4.21319 13.9606C4.55712 14.5955 4.9949 15.1558 5.50136 15.6621C6.1733 16.3339 6.9708 16.89 7.85887 17.266C8.30148 17.4526 8.76141 17.5951 9.232 17.6913C9.54889 17.756 9.86954 17.8006 10.192 17.825C10.1442 17.7472 10.0899 17.6628 10.0462 17.5819C9.68897 16.9249 9.45715 16.2099 9.37781 15.4311C9.35792 15.2364 9.35359 15.0234 9.35359 14.8235C9.35439 13.8557 9.59661 12.9034 10.0583 12.0528C10.1115 11.9536 10.1683 11.8563 10.2286 11.7612L20.74 22.2726C19.2345 24.1156 18.2098 26.3788 17.8964 28.859H9.60893C10.3166 26.4665 12.5146 24.7152 15.1381 24.7153C15.2178 24.7153 15.302 24.7119 15.3811 24.7152C14.0645 23.6593 12.4267 23.0848 10.739 23.0868C6.64279 23.0868 3.33834 26.4156 3.33834 30.5118C3.33834 34.6081 6.64279 37.9123 10.739 37.9123C12.5002 37.9123 14.1195 37.3197 15.3933 36.2961C15.3084 36.2999 15.2236 36.3083 15.1381 36.3083C12.5144 36.3083 10.3166 34.5569 9.60881 32.1643H17.8965C18.2099 34.6447 19.2346 36.9079 20.7401 38.7507L10.2286 49.2623C10.1642 49.1632 10.1034 49.0619 10.0464 48.9585C9.68897 48.3014 9.45715 47.5379 9.37793 46.759C9.35803 46.5642 9.36576 46.3876 9.36576 46.1879C9.36576 45.1883 9.59968 44.2367 10.0464 43.4172C10.0853 43.345 10.1376 43.2804 10.18 43.2105C10.1175 43.215 10.0599 43.2164 9.99767 43.2227C9.99182 43.2233 9.991 43.2101 9.9855 43.2105C9.74186 43.2358 9.49261 43.2839 9.25646 43.3321C9.25049 43.3327 9.23774 43.3309 9.23212 43.3321C8.99644 43.3808 8.77866 43.4318 8.55152 43.5023C8.54567 43.5039 8.53221 43.5005 8.5273 43.5023C8.30004 43.5732 8.07607 43.6659 7.85887 43.7574C7.85302 43.7596 7.85127 43.7673 7.8467 43.7695C7.62951 43.8615 7.42075 43.9497 7.21479 44.0612C7.13264 44.1055 7.05213 44.1597 6.97185 44.207C6.43473 44.5243 5.95248 44.9117 5.51353 45.3493C5.00742 45.8539 4.56929 46.417 4.22548 47.0506C3.6536 48.1001 3.33846 49.3067 3.33846 50.5867C3.33846 50.8428 3.33752 51.0909 3.36268 51.3403C3.46414 52.3377 3.76804 53.2815 4.22548 54.1231C4.56929 54.7578 5.00718 55.3181 5.51353 55.8244C6.18559 56.4963 6.98309 57.0524 7.87104 57.4284C8.31369 57.615 8.77366 57.7574 9.24429 57.8536C9.73587 57.9566 10.2366 58.0096 10.7389 58.0117C10.9947 58.0117 11.2427 57.9886 11.4923 57.9632C11.4981 57.9626 11.4991 57.9759 11.5044 57.9753C11.748 57.9499 11.9976 57.9022 12.2335 57.8539C12.2394 57.8533 12.2523 57.8549 12.2578 57.8539C12.7347 57.7549 13.192 57.6143 13.6309 57.4285C13.6368 57.4263 13.6386 57.4185 13.6431 57.4163C14.0862 57.2277 14.5009 57.0154 14.8948 56.7481C15.092 56.6145 15.2709 56.4619 15.4538 56.3105C15.6355 56.161 15.8098 56.0028 15.9763 55.8365C16.3151 55.4982 16.6203 55.1279 16.8878 54.7307C17.1549 54.3357 17.3926 53.9231 17.5804 53.4791C17.7677 53.0352 17.9071 52.5646 18.0057 52.0817C18.0686 51.7741 18.1268 51.4539 18.1516 51.1338C17.917 51.277 17.6658 51.4259 17.4103 51.5348C17.4052 51.5365 17.3898 51.5331 17.386 51.5348C17.0433 51.6799 16.6891 51.7736 16.3166 51.8508C16.3107 51.8514 16.309 51.8618 16.3044 51.863C16.12 51.9006 15.9356 51.9403 15.7454 51.9601C15.5507 51.98 15.3376 51.9844 15.1378 51.9844C14.7459 51.9833 14.355 51.9426 13.9712 51.8628C13.5985 51.7864 13.2445 51.6671 12.9019 51.5227C12.619 51.4041 12.3466 51.2618 12.0877 51.0973L22.5871 40.598C24.4299 42.1034 26.6931 43.1283 29.1735 43.4416V51.7292C26.781 51.0174 25.0418 48.8114 25.0417 46.1879C25.0417 46.1055 25.0384 46.0264 25.0417 45.9448C24.0189 47.2148 23.4133 48.8263 23.4133 50.587C23.4133 54.6829 26.7302 57.9997 30.8262 57.9997C34.9222 57.9997 38.2511 54.6708 38.2511 50.5748C38.2511 48.8224 37.6406 47.2242 36.6227 45.957C36.6277 46.0327 36.6104 46.1115 36.6104 46.1879C36.6104 48.8114 34.8712 51.0174 32.4787 51.7292V43.4414C34.9591 43.128 37.2222 42.1033 39.0652 40.5978L49.5646 51.0972C49.3106 51.2601 49.0415 51.4158 48.7625 51.5347C48.7583 51.5364 48.7541 51.5209 48.7503 51.5225C48.4077 51.6677 48.0535 51.7855 47.681 51.8627C47.6768 51.8639 47.6734 51.8495 47.6688 51.8506C47.4845 51.8884 47.2879 51.9402 47.0977 51.96H47.0734C46.8831 51.9794 46.7097 51.984 46.5144 51.9843C46.1101 51.9843 45.7168 51.9297 45.3356 51.8507C44.963 51.7743 44.6089 51.6791 44.2663 51.5347C44.0049 51.424 43.7522 51.2687 43.5129 51.1216C43.6088 52.4518 44.0575 53.6849 44.7645 54.7307C45.032 55.1278 45.3372 55.4981 45.6759 55.8365C46.348 56.5086 47.1333 57.0524 48.0213 57.4284C48.4639 57.615 48.9239 57.7575 49.3945 57.8537C49.8941 57.9579 50.4031 58.0108 50.9135 58.0117C51.1635 58.0111 51.411 58 51.6548 57.9752C51.6606 57.9749 51.6735 57.9758 51.679 57.9752C51.9226 57.9499 52.1478 57.9021 52.3838 57.8537C52.3889 57.8532 52.4028 57.8548 52.4082 57.8537C52.8852 57.7547 53.3425 57.6142 53.7813 57.4285C53.7863 57.4262 53.8007 57.4306 53.8055 57.4285C54.2486 57.2397 54.6633 57.0031 55.0572 56.7357C55.2543 56.6032 55.4449 56.4613 55.6284 56.3105C55.8117 56.159 55.9708 55.9924 56.1388 55.8244C57.4837 54.4797 58.314 52.6394 58.314 50.5868C58.314 50.3308 58.3152 50.0827 58.2897 49.8333C58.1627 48.5871 57.7298 47.428 57.0623 46.443C55.8246 44.6097 53.7869 43.3508 51.4481 43.1863C51.8834 43.9006 52.1854 44.7185 52.2743 45.5923C52.2942 45.787 52.2866 45.9879 52.2866 46.1879C52.2866 47.3142 51.9552 48.3519 51.3995 49.2379L40.9122 38.7507C42.4177 36.9079 43.4425 34.6447 43.7559 32.1644H52.0435C51.3316 34.5569 49.1256 36.2961 46.5022 36.2961C46.4198 36.2961 46.3406 36.2994 46.2591 36.2961C47.5291 37.3189 49.1406 37.9244 50.9013 37.9244C54.9973 37.9244 58.3139 34.6077 58.3139 30.5117C58.3139 26.4157 54.9851 23.0867 50.889 23.0867C49.1366 23.0867 47.5384 23.6973 46.2713 24.7152C46.3469 24.7124 46.4258 24.7274 46.5022 24.7274C49.1256 24.7274 51.3317 26.4665 52.0435 28.859H43.7559C43.4425 26.3788 42.4176 24.1156 40.9122 22.2726L51.4116 11.7733C51.9651 12.6584 52.2986 13.7022 52.2986 14.8235C52.2986 15.9235 51.9819 16.9611 51.4481 17.8372C51.8351 17.8049 52.2206 17.729 52.5904 17.6427C52.7721 17.6003 52.9365 17.5646 53.1129 17.509C53.8066 17.2907 54.4676 16.9856 55.0573 16.5855C55.2542 16.4521 55.4334 16.2994 55.6162 16.1481C55.802 15.9945 55.9804 15.8323 56.151 15.662C56.4856 15.3276 56.7868 14.9613 57.0502 14.5683C57.8512 13.3832 58.3262 11.9603 58.3262 10.4244C58.3262 8.88853 57.8512 7.46263 57.0502 6.2806C56.7827 5.88347 56.4775 5.51313 56.1388 5.17475L56.1389 5.17486ZM35.0914 26.2463C36.1834 27.3381 36.8535 28.8472 36.8535 30.5117C36.8535 33.8405 34.155 36.539 30.8261 36.539C27.4972 36.539 24.7986 33.8405 24.7986 30.5116C24.7986 27.1827 27.4972 24.4843 30.8261 24.4842C32.4904 24.4842 33.9994 25.1544 35.0915 26.2463" fill="url(#paint0_linear_295_1269)" fill-opacity="0.2"/>
<defs>
<linearGradient id="paint0_linear_295_1269" x1="30.8262" y1="3.01172" x2="30.8262" y2="58.0117" gradientUnits="userSpaceOnUse">
<stop/>
<stop offset="1" stop-opacity="0"/>
</linearGradient>
</defs>
</svg>
