<svg width="25" height="24" viewBox="0 0 25 24" fill="none" xmlns="http://www.w3.org/2000/svg">
<g clip-path="url(#clip0_295_1183)">
<path fill-rule="evenodd" clip-rule="evenodd" d="M20.7444 4.42997C20.9915 4.32596 21.262 4.29008 21.5277 4.32608C21.7934 4.36208 22.0446 4.46863 22.2551 4.63465C22.4656 4.80067 22.6278 5.02008 22.7248 5.27005C22.8218 5.52002 22.8499 5.79141 22.8064 6.05597L20.5384 19.813C20.3184 21.14 18.8624 21.901 17.6454 21.24C16.6274 20.687 15.1154 19.835 13.7554 18.946C13.0754 18.501 10.9924 17.076 11.2484 16.062C11.4684 15.195 14.9684 11.937 16.9684 9.99997C17.7534 9.23897 17.3954 8.79997 16.4684 9.49997C14.1664 11.238 10.4704 13.881 9.24843 14.625C8.17043 15.281 7.60843 15.393 6.93643 15.281C5.71043 15.077 4.57343 14.761 3.64543 14.376C2.39143 13.856 2.45243 12.132 3.64443 11.63L20.7444 4.42997Z" fill="#C0BBFF"/>
</g>
<defs>
<clipPath id="clip0_295_1183">
<rect width="24" height="24" fill="white" transform="translate(0.967529)"/>
</clipPath>
</defs>
</svg>
