<svg width="56" height="53" viewBox="0 0 56 53" fill="none" xmlns="http://www.w3.org/2000/svg">
<path d="M49.2006 0.550781C47.1614 0.550781 45.4794 2.23281 45.4794 4.2835V4.43327C44.3273 4.79041 43.1752 5.1706 42.0347 5.58534C41.355 4.64064 40.2605 4.03004 39.0278 4.03004C36.9771 4.03004 35.2951 5.71207 35.2951 7.75124C35.2951 7.95861 35.3181 8.16599 35.3411 8.36184C34.2351 8.8918 33.1407 9.44479 32.0692 10.0323C31.401 9.39871 30.4909 8.99548 29.5001 8.99548C27.461 8.99548 25.7789 10.6775 25.7789 12.7167C25.7789 13.1084 25.8365 13.4886 25.9517 13.8457C24.8342 14.6406 23.7513 15.4701 22.6914 16.3342C22.196 16.0923 21.643 15.954 21.0554 15.954C19.0163 15.954 17.3342 17.636 17.3342 19.6752C17.3342 20.1591 17.4264 20.6199 17.5992 21.0462C16.6315 22.06 15.6983 23.1084 14.7997 24.2029C14.3964 24.0646 13.9702 23.984 13.5209 23.984C11.4817 23.984 9.79736 25.666 9.79736 27.7052C9.79736 28.5692 10.0992 29.3641 10.5946 29.9978C9.92409 31.0462 9.2674 32.1291 8.64759 33.2466C8.40565 33.2006 8.1522 33.1775 7.89528 33.1775C5.85035 33.1775 4.17293 34.848 4.17293 36.8987C4.17293 38.0277 4.68676 39.0416 5.49091 39.7328C5.10151 40.6429 4.72363 41.5761 4.36303 42.5323C4.30082 42.5208 4.2363 42.5208 4.17293 42.5208C2.128 42.5208 0.444824 44.2029 0.444824 46.2535C0.444824 47.5439 1.11879 48.6844 2.13146 49.3641C1.81694 50.4817 1.52086 51.6337 1.24091 52.8088H3.45289C3.68676 51.8411 3.9333 50.9079 4.19137 49.9747C6.22708 49.9632 7.89528 48.2927 7.89528 46.2535C7.89528 45.0323 7.29505 43.9379 6.3757 43.2582C6.71671 42.348 7.0681 41.4609 7.43446 40.5969C7.58538 40.6084 7.73975 40.6199 7.89528 40.6199C9.93561 40.6199 11.6199 38.9379 11.6199 36.8987C11.6199 35.8618 11.1937 34.9287 10.5024 34.2489C11.0785 33.2121 11.6775 32.1982 12.2881 31.219C12.6798 31.3572 13.0946 31.4379 13.5209 31.4379C15.5716 31.4379 17.2536 29.7558 17.2536 27.7052C17.2536 26.8526 16.954 26.0692 16.4702 25.4356C17.2536 24.4909 18.06 23.5807 18.8895 22.6936C19.5001 23.1429 20.249 23.3964 21.0554 23.3964C23.1061 23.3964 24.7881 21.7259 24.7881 19.6752C24.7881 18.9724 24.5808 18.3042 24.2351 17.7397C25.1683 16.9794 26.1245 16.2651 27.1038 15.5623C27.7605 16.1153 28.59 16.4494 29.5001 16.4494C31.5508 16.4494 33.2328 14.7674 33.2328 12.7282C33.2328 12.4171 33.1868 12.1176 33.1176 11.8411C34.143 11.2766 35.1914 10.7466 36.2628 10.2512C36.9425 11.0001 37.9333 11.484 39.0163 11.484C41.0669 11.484 42.749 9.80193 42.749 7.75124V7.57843C43.878 7.1752 45.0186 6.79502 46.1821 6.4494C46.8619 7.3941 47.9679 8.0047 49.2006 8.0047C51.113 8.0047 52.7029 6.54156 52.9103 4.67521C53.7513 4.49087 54.5923 4.30654 55.4448 4.14525V1.95631C54.4656 2.14064 53.4748 2.34802 52.507 2.56691C51.8849 1.36875 50.6292 0.550781 49.2006 0.550781ZM49.2006 2.70516C50.0877 2.70516 50.7789 3.3964 50.7789 4.2835C50.7789 5.15908 50.0877 5.85032 49.2006 5.85032C48.325 5.85032 47.6338 5.15908 47.6338 4.2835C47.6338 3.3964 48.325 2.70516 49.2006 2.70516ZM39.0278 6.18442C39.9034 6.18442 40.5946 6.87567 40.5946 7.75124C40.5946 8.63834 39.9034 9.32958 39.0278 9.32958C38.1407 9.32958 37.4494 8.63834 37.4494 7.75124C37.4494 6.87567 38.1407 6.18442 39.0278 6.18442ZM55.4448 7.62451C53.6245 7.92405 52.2421 9.57152 52.3227 11.4609C52.3227 11.5416 52.3342 11.6222 52.3457 11.7029C51.6315 11.8757 50.9172 12.06 50.2029 12.2674C49.5116 11.1844 48.2789 10.4817 46.9195 10.5393C44.8688 10.6199 43.2559 12.3711 43.348 14.4218V14.5139C42.7605 14.7443 42.1729 14.9747 41.5969 15.2167C40.8941 14.2374 39.719 13.6153 38.4287 13.6729C36.3895 13.7535 34.7766 15.5047 34.8573 17.5554C34.8688 17.8664 34.9264 18.1775 35.0186 18.477C34.2467 18.9148 33.4863 19.3757 32.7374 19.8595C32.0232 19.1337 31.0209 18.6959 29.9264 18.742C27.8872 18.8342 26.2743 20.5853 26.355 22.6245C26.3895 23.2351 26.5623 23.8111 26.8504 24.3181C26.2513 24.8365 25.6752 25.378 25.0992 25.9425C24.5116 25.5969 23.8204 25.4125 23.0831 25.4471C21.0439 25.5277 19.431 27.2789 19.5232 29.3181C19.5577 30.1245 19.8457 30.8618 20.3066 31.4494C19.8112 32.1291 19.3273 32.8204 18.855 33.5347C18.4287 33.3849 17.9679 33.3158 17.4955 33.3388C15.4448 33.4194 13.8319 35.1706 13.9241 37.2098C13.9702 38.3158 14.5001 39.295 15.3066 39.9402C14.984 40.6314 14.6845 41.3227 14.3849 42.037C14.2006 42.0254 14.0047 42.0139 13.8089 42.0139C11.7582 42.1061 10.1568 43.8457 10.2375 45.8964C10.2951 47.1867 11.0093 48.3042 12.0462 48.9264C11.7006 50.1821 11.401 51.4724 11.113 52.8088H13.3135C13.5554 51.6568 13.8319 50.5508 14.1315 49.4678C16.1591 49.3757 17.772 47.6245 17.6798 45.5853C17.6338 44.5024 17.1269 43.5347 16.3434 42.878C16.6315 42.1637 16.9425 41.4494 17.2536 40.7582C17.4379 40.7812 17.6107 40.7812 17.7951 40.7812C19.8457 40.689 21.4471 38.9494 21.3665 36.8987C21.3319 36.0923 21.0324 35.3434 20.56 34.7443C21.0209 34.03 21.5047 33.3503 22.0001 32.6706C22.4379 32.8319 22.9103 32.9125 23.3941 32.8895C25.4333 32.7973 27.0462 31.0577 26.9656 29.007C26.9425 28.4425 26.7812 27.9125 26.5278 27.4287C27.1153 26.8526 27.7259 26.2996 28.3365 25.7582C28.901 26.0577 29.5577 26.219 30.2374 26.1959C32.2766 26.1038 33.8895 24.3526 33.8089 22.3135C33.7974 22.1061 33.7743 21.8987 33.7282 21.6913C34.5232 21.1844 35.3296 20.689 36.1591 20.2167C36.8619 20.8158 37.7605 21.1614 38.7398 21.1153C40.7789 21.0347 42.3918 19.2835 42.3112 17.2443V17.2213C42.8987 16.9678 43.4978 16.7374 44.0969 16.507C44.8112 17.4402 45.9633 18.0393 47.219 17.9817C49.1891 17.901 50.7674 16.2766 50.7904 14.3296C51.5854 14.1107 52.3918 13.9033 53.1983 13.6959C53.7628 14.3641 54.5577 14.8365 55.4448 14.9747V12.7628C54.8918 12.5323 54.5001 12.0139 54.4771 11.3688C54.4425 10.6775 54.8457 10.09 55.4448 9.84802V7.62451ZM29.5001 11.1499C30.3872 11.1499 31.0785 11.8411 31.0785 12.7282C31.0785 13.6038 30.3872 14.295 29.5001 14.295C28.6245 14.295 27.9333 13.6038 27.9333 12.7282C27.9333 11.8411 28.6245 11.1499 29.5001 11.1499ZM47.0001 12.6936C47.8872 12.6591 48.6015 13.3158 48.6476 14.2029C48.6822 15.0784 48.0139 15.7927 47.1384 15.8273C46.2513 15.8734 45.537 15.2052 45.5024 14.3296C45.4679 13.4425 46.1245 12.7282 47.0001 12.6936ZM38.5209 15.8273C39.3964 15.7927 40.1222 16.4494 40.1568 17.325C40.1914 18.2121 39.5232 18.9264 38.6476 18.9609C37.772 19.007 37.0462 18.3388 37.0116 17.4632C36.9771 16.5761 37.6338 15.8618 38.5209 15.8273ZM54.3849 17.5439C52.5186 17.6245 51.0209 19.0876 50.8365 20.8964C49.7651 21.2075 48.7167 21.5416 47.6914 21.8987C46.9771 21.0577 45.8941 20.5393 44.719 20.5969C42.6683 20.6775 41.0669 22.4287 41.1476 24.4678C41.1476 24.56 41.1591 24.6406 41.1706 24.7328C40.2144 25.2397 39.2928 25.7697 38.3941 26.3457C37.7259 25.8618 36.9195 25.5853 36.0439 25.6199C34.0047 25.7121 32.3918 27.4632 32.484 29.5024C32.4955 29.9287 32.5877 30.3319 32.7374 30.7121C31.8158 31.5876 30.9287 32.5208 30.0992 33.5116C29.6269 33.3158 29.0969 33.2121 28.5554 33.2351C26.5162 33.3158 24.9033 35.0669 24.984 37.1176C25.0301 38.0508 25.4218 38.8918 26.0209 39.5254C25.3757 40.7236 24.7881 41.9794 24.2582 43.3042C21.4126 43.3042 20.6407 45.5623 20.6522 47.1752C20.7098 48.3388 21.2974 49.3641 22.1614 50.0093C21.954 50.9194 21.7697 51.8526 21.6084 52.8088H23.7974C23.9241 52.1061 24.0623 51.4148 24.2121 50.7466C24.3158 50.7582 24.4195 50.7466 24.5347 50.7466C26.5739 50.666 28.1868 48.9148 28.1061 46.8757C28.0485 45.5969 27.3457 44.4909 26.3434 43.8688C26.8043 42.7167 27.3227 41.6337 27.8872 40.5969C28.1983 40.666 28.5324 40.7006 28.8665 40.6775C30.9057 40.5969 32.5186 38.8457 32.4379 36.8065C32.4033 36.0807 32.1614 35.4125 31.7697 34.848C32.507 33.9955 33.2789 33.1775 34.0854 32.4056C34.7305 32.8549 35.5139 33.1084 36.355 33.0738C38.4057 32.9817 40.007 31.242 39.9264 29.1913C39.9149 28.7996 39.8342 28.4194 39.696 28.0623C40.4563 27.59 41.2282 27.1406 42.0232 26.7144C42.749 27.5669 43.8319 28.0853 45.0186 28.0393C47.0577 27.9471 48.6706 26.2075 48.59 24.1568C48.59 24.0646 48.5785 23.9724 48.5669 23.8803C49.4425 23.5692 50.3411 23.2812 51.2513 23.0162C51.908 24.2374 53.2213 25.0554 54.696 24.9863C54.9494 24.9863 55.2029 24.9402 55.4448 24.8826V22.5554C55.2144 22.7282 54.9264 22.8319 54.6038 22.8434C53.7282 22.878 53.0024 22.2098 52.9679 21.3342C52.9333 20.4586 53.59 19.7328 54.4771 19.6982C54.8457 19.6867 55.1798 19.7904 55.4448 19.9863V17.6591C55.0531 17.5669 54.7651 17.5439 54.3849 17.5439ZM21.0554 18.1084C21.9425 18.1084 22.6338 18.7996 22.6338 19.6752C22.6338 20.5623 21.9425 21.242 21.0554 21.242C20.1798 21.242 19.4886 20.5623 19.4886 19.6752C19.4886 18.7996 20.1798 18.1084 21.0554 18.1084ZM30.0186 20.8964C30.8941 20.8618 31.6199 21.5185 31.6545 22.4056C31.6891 23.2812 31.0324 24.007 30.1453 24.0416C29.2697 24.0761 28.5439 23.4079 28.5093 22.5323C28.4748 21.6568 29.143 20.931 30.0186 20.8964ZM44.7997 22.7397C45.6868 22.7052 46.401 23.3734 46.4356 24.2489C46.4702 25.136 45.8135 25.8503 44.9379 25.8849C44.0508 25.9194 43.3365 25.2628 43.2904 24.3757C43.2559 23.5001 43.9241 22.7743 44.7997 22.7397ZM13.5209 26.1383C14.408 26.1383 15.0992 26.8296 15.0992 27.7052C15.0992 28.5923 14.408 29.2835 13.5209 29.2835C12.6453 29.2835 11.954 28.5923 11.954 27.7052C11.954 26.8296 12.6453 26.1383 13.5209 26.1383ZM23.1752 27.59C24.0508 27.5554 24.7766 28.2236 24.8112 29.0992C24.8457 29.9747 24.1891 30.7006 23.302 30.7351C22.4264 30.7697 21.7006 30.113 21.666 29.2259C21.6315 28.3503 22.2881 27.636 23.1752 27.59ZM36.1361 27.7743C37.0232 27.7397 37.7374 28.4079 37.772 29.2835C37.8181 30.1591 37.1499 30.8849 36.2628 30.9194C35.3872 30.954 34.6729 30.2973 34.6384 29.4102C34.5923 28.5347 35.2605 27.8204 36.1361 27.7743ZM50.3296 28.6499H50.1338C48.0946 28.7305 46.4817 30.4817 46.5623 32.5323C46.5739 32.5554 46.5739 32.59 46.5739 32.6245C45.7789 32.8895 45.0186 33.2006 44.2812 33.5462C43.6015 32.9932 42.7259 32.6706 41.7812 32.7052C39.7305 32.7973 38.1292 34.537 38.2098 36.5876C38.2213 36.9794 38.302 37.348 38.4287 37.7052C37.5877 38.5807 36.8158 39.537 36.1361 40.5623C35.7444 40.4471 35.3296 40.3895 34.9033 40.4125C32.8642 40.4932 31.2513 42.2443 31.3319 44.2835C31.3895 45.5623 32.0923 46.6683 33.1061 47.2904C32.9103 47.9932 32.7374 48.719 32.5877 49.4563C30.8711 49.6867 29.5462 51.0923 29.3849 52.8088H31.5508C31.7006 52.1176 32.2881 51.6107 33.0255 51.5761C33.8089 51.5416 34.4656 52.0715 34.6269 52.8088H36.8043C36.6775 51.4724 35.848 50.3549 34.7075 49.7904C34.8457 49.1222 35.007 48.477 35.1798 47.8549H35.2144C37.2536 47.7628 38.8665 46.0231 38.7858 43.9724C38.7513 43.1314 38.4287 42.3595 37.9218 41.7489C38.4748 40.9194 39.0854 40.1591 39.7536 39.4448C40.3987 39.9171 41.2167 40.1936 42.0808 40.1476C44.1199 40.0669 45.7328 38.3158 45.6522 36.2766C45.6407 35.954 45.5831 35.6429 45.5024 35.3549C46.09 35.09 46.7006 34.848 47.3342 34.6291C48.0485 35.5623 49.1891 36.1499 50.4448 36.0923C52.1038 36.0231 53.4748 34.8595 53.8895 33.3273C54.3964 33.2812 54.9149 33.2582 55.4448 33.2351V31.0923C54.9034 31.1038 54.3504 31.1383 53.8204 31.1729C53.3135 29.7098 51.931 28.6614 50.3296 28.6499ZM50.2259 30.8042C51.1015 30.7697 51.8273 31.4264 51.8619 32.3019C51.8964 33.189 51.2398 33.9033 50.3527 33.9494C49.4771 33.984 48.7628 33.3158 48.7167 32.4402C48.6821 31.5531 49.3504 30.8388 50.2259 30.8042ZM41.8619 34.8595C42.749 34.825 43.4633 35.4817 43.4978 36.3688C43.5324 37.2443 42.8757 37.9586 42.0001 38.0047C41.113 38.0393 40.3987 37.3711 40.3527 36.4955C40.3181 35.6084 40.9863 34.8941 41.8619 34.8595ZM7.89644 35.3204C8.77317 35.3204 9.46441 36.0116 9.46441 36.8987C9.46441 37.7743 8.77317 38.4655 7.89644 38.4655C7.0151 38.4655 6.32731 37.7743 6.32731 36.8987C6.32731 36.0116 7.0151 35.3204 7.89644 35.3204ZM28.6476 35.3895C29.5232 35.3434 30.249 36.0116 30.2835 36.8987C30.3181 37.7743 29.6614 38.4886 28.7743 38.5231C27.8987 38.5692 27.1729 37.901 27.1384 37.0254C27.1038 36.1383 27.7605 35.4241 28.6476 35.3895ZM17.5762 35.4817C18.4633 35.4471 19.1775 36.1153 19.2121 36.9909C19.2582 37.8664 18.59 38.5923 17.7144 38.6268C16.8273 38.6614 16.113 38.0047 16.0785 37.1176C16.0324 36.242 16.7006 35.5277 17.5762 35.4817ZM54.3619 36.3572C52.6453 36.4724 51.1591 37.7973 50.9287 39.5715C50.8826 39.848 50.8826 40.136 50.9057 40.401C50.2605 40.6775 49.6269 41.0001 49.0163 41.3918C48.4402 40.954 47.7259 40.689 46.954 40.6545C44.9033 40.5738 43.1522 42.1867 43.0715 44.2259C43.0255 45.3319 43.4863 46.3572 44.2351 47.0715C43.9126 47.8204 43.6591 48.6153 43.4633 49.4678C41.8043 49.7443 40.5139 51.1268 40.3642 52.8088H42.5416C42.6798 52.1176 43.2674 51.6107 44.0047 51.5761C44.7881 51.5416 45.4448 52.0715 45.6061 52.8088H47.7835C47.6568 51.4379 46.7812 50.2858 45.5946 49.7443C45.7328 49.1453 45.9172 48.5692 46.1245 48.0393C46.2974 48.0738 46.4702 48.0853 46.643 48.0969C48.6821 48.1775 50.4333 46.5761 50.5139 44.5254C50.537 44.03 50.4563 43.5462 50.2951 43.0969C50.7444 42.8204 51.2282 42.5784 51.7006 42.3826C52.2881 43.1084 53.1292 43.6268 54.1199 43.7651C54.5808 43.8227 55.0301 43.7996 55.4448 43.7075V41.4033C55.1568 41.5876 54.7881 41.6798 54.408 41.6222C53.5324 41.507 52.9448 40.7351 53.06 39.8595C53.1752 38.984 53.9586 38.3964 54.8227 38.5116C55.0646 38.5462 55.272 38.6268 55.4448 38.742V36.4379C55.0762 36.3572 54.7075 36.3227 54.3619 36.3572ZM34.9955 42.5554C35.8711 42.5208 36.5969 43.1775 36.6315 44.0646C36.666 44.9402 36.0093 45.666 35.1222 45.7006C34.2467 45.7351 33.5209 45.0784 33.4863 44.1913C33.4517 43.3158 34.1084 42.59 34.9955 42.5554ZM46.7006 42.8088C46.7467 42.7973 46.8043 42.8088 46.8619 42.8088C47.7374 42.8434 48.4057 43.5577 48.3711 44.4448C48.3365 45.3204 47.6107 45.9886 46.7351 45.954C45.848 45.9079 45.1914 45.1936 45.2259 44.3065C45.2605 43.4886 45.8941 42.8549 46.7006 42.8088ZM13.901 44.1683C14.7766 44.1337 15.4909 44.7904 15.5255 45.6775C15.5716 46.5531 14.9033 47.2674 14.0278 47.3135C13.1407 47.348 12.4264 46.6798 12.3918 45.8042C12.3457 44.9287 13.0139 44.2029 13.901 44.1683ZM4.17293 44.6752C5.05427 44.6752 5.74321 45.3664 5.74321 46.2535C5.74321 47.1291 5.05427 47.8204 4.17293 47.8204C3.2916 47.8204 2.5992 47.1291 2.5992 46.2535C2.5992 45.3664 3.2916 44.6752 4.17293 44.6752ZM24.3158 45.4586C25.1914 45.4241 25.9172 46.0807 25.9517 46.9563C25.9863 47.8434 25.3296 48.5577 24.4425 48.6038C23.5669 48.6383 22.8411 47.9701 22.8066 47.0946C22.772 46.2075 23.4402 45.4932 24.3158 45.4586ZM54.5232 48.2697C52.5646 48.2927 50.9287 49.8595 50.8365 51.8411C50.825 52.1752 50.8596 52.4978 50.9287 52.8088H53.2213C53.06 52.5554 52.9794 52.2559 52.9909 51.9333C53.0255 51.0462 53.7513 50.3895 54.6269 50.4241C54.9379 50.4356 55.2144 50.5393 55.4448 50.7006V48.3849C55.0992 48.3042 54.8457 48.2697 54.5232 48.2697Z" fill="#FB5D2C"/>
<path d="M49.2006 0.550781C47.1614 0.550781 45.4794 2.23281 45.4794 4.2835V4.43327C44.3273 4.79041 43.1752 5.1706 42.0347 5.58534C41.355 4.64064 40.2605 4.03004 39.0278 4.03004C36.9771 4.03004 35.2951 5.71207 35.2951 7.75124C35.2951 7.95861 35.3181 8.16599 35.3411 8.36184C34.2351 8.8918 33.1407 9.44479 32.0692 10.0323C31.401 9.39871 30.4909 8.99548 29.5001 8.99548C27.461 8.99548 25.7789 10.6775 25.7789 12.7167C25.7789 13.1084 25.8365 13.4886 25.9517 13.8457C24.8342 14.6406 23.7513 15.4701 22.6914 16.3342C22.196 16.0923 21.643 15.954 21.0554 15.954C19.0163 15.954 17.3342 17.636 17.3342 19.6752C17.3342 20.1591 17.4264 20.6199 17.5992 21.0462C16.6315 22.06 15.6983 23.1084 14.7997 24.2029C14.3964 24.0646 13.9702 23.984 13.5209 23.984C11.4817 23.984 9.79736 25.666 9.79736 27.7052C9.79736 28.5692 10.0992 29.3641 10.5946 29.9978C9.92409 31.0462 9.2674 32.1291 8.64759 33.2466C8.40565 33.2006 8.1522 33.1775 7.89528 33.1775C5.85035 33.1775 4.17293 34.848 4.17293 36.8987C4.17293 38.0277 4.68676 39.0416 5.49091 39.7328C5.10151 40.6429 4.72363 41.5761 4.36303 42.5323C4.30082 42.5208 4.2363 42.5208 4.17293 42.5208C2.128 42.5208 0.444824 44.2029 0.444824 46.2535C0.444824 47.5439 1.11879 48.6844 2.13146 49.3641C1.81694 50.4817 1.52086 51.6337 1.24091 52.8088H3.45289C3.68676 51.8411 3.9333 50.9079 4.19137 49.9747C6.22708 49.9632 7.89528 48.2927 7.89528 46.2535C7.89528 45.0323 7.29505 43.9379 6.3757 43.2582C6.71671 42.348 7.0681 41.4609 7.43446 40.5969C7.58538 40.6084 7.73975 40.6199 7.89528 40.6199C9.93561 40.6199 11.6199 38.9379 11.6199 36.8987C11.6199 35.8618 11.1937 34.9287 10.5024 34.2489C11.0785 33.2121 11.6775 32.1982 12.2881 31.219C12.6798 31.3572 13.0946 31.4379 13.5209 31.4379C15.5716 31.4379 17.2536 29.7558 17.2536 27.7052C17.2536 26.8526 16.954 26.0692 16.4702 25.4356C17.2536 24.4909 18.06 23.5807 18.8895 22.6936C19.5001 23.1429 20.249 23.3964 21.0554 23.3964C23.1061 23.3964 24.7881 21.7259 24.7881 19.6752C24.7881 18.9724 24.5808 18.3042 24.2351 17.7397C25.1683 16.9794 26.1245 16.2651 27.1038 15.5623C27.7605 16.1153 28.59 16.4494 29.5001 16.4494C31.5508 16.4494 33.2328 14.7674 33.2328 12.7282C33.2328 12.4171 33.1868 12.1176 33.1176 11.8411C34.143 11.2766 35.1914 10.7466 36.2628 10.2512C36.9425 11.0001 37.9333 11.484 39.0163 11.484C41.0669 11.484 42.749 9.80193 42.749 7.75124V7.57843C43.878 7.1752 45.0186 6.79502 46.1821 6.4494C46.8619 7.3941 47.9679 8.0047 49.2006 8.0047C51.113 8.0047 52.7029 6.54156 52.9103 4.67521C53.7513 4.49087 54.5923 4.30654 55.4448 4.14525V1.95631C54.4656 2.14064 53.4748 2.34802 52.507 2.56691C51.8849 1.36875 50.6292 0.550781 49.2006 0.550781ZM49.2006 2.70516C50.0877 2.70516 50.7789 3.3964 50.7789 4.2835C50.7789 5.15908 50.0877 5.85032 49.2006 5.85032C48.325 5.85032 47.6338 5.15908 47.6338 4.2835C47.6338 3.3964 48.325 2.70516 49.2006 2.70516ZM39.0278 6.18442C39.9034 6.18442 40.5946 6.87567 40.5946 7.75124C40.5946 8.63834 39.9034 9.32958 39.0278 9.32958C38.1407 9.32958 37.4494 8.63834 37.4494 7.75124C37.4494 6.87567 38.1407 6.18442 39.0278 6.18442ZM55.4448 7.62451C53.6245 7.92405 52.2421 9.57152 52.3227 11.4609C52.3227 11.5416 52.3342 11.6222 52.3457 11.7029C51.6315 11.8757 50.9172 12.06 50.2029 12.2674C49.5116 11.1844 48.2789 10.4817 46.9195 10.5393C44.8688 10.6199 43.2559 12.3711 43.348 14.4218V14.5139C42.7605 14.7443 42.1729 14.9747 41.5969 15.2167C40.8941 14.2374 39.719 13.6153 38.4287 13.6729C36.3895 13.7535 34.7766 15.5047 34.8573 17.5554C34.8688 17.8664 34.9264 18.1775 35.0186 18.477C34.2467 18.9148 33.4863 19.3757 32.7374 19.8595C32.0232 19.1337 31.0209 18.6959 29.9264 18.742C27.8872 18.8342 26.2743 20.5853 26.355 22.6245C26.3895 23.2351 26.5623 23.8111 26.8504 24.3181C26.2513 24.8365 25.6752 25.378 25.0992 25.9425C24.5116 25.5969 23.8204 25.4125 23.0831 25.4471C21.0439 25.5277 19.431 27.2789 19.5232 29.3181C19.5577 30.1245 19.8457 30.8618 20.3066 31.4494C19.8112 32.1291 19.3273 32.8204 18.855 33.5347C18.4287 33.3849 17.9679 33.3158 17.4955 33.3388C15.4448 33.4194 13.8319 35.1706 13.9241 37.2098C13.9702 38.3158 14.5001 39.295 15.3066 39.9402C14.984 40.6314 14.6845 41.3227 14.3849 42.037C14.2006 42.0254 14.0047 42.0139 13.8089 42.0139C11.7582 42.1061 10.1568 43.8457 10.2375 45.8964C10.2951 47.1867 11.0093 48.3042 12.0462 48.9264C11.7006 50.1821 11.401 51.4724 11.113 52.8088H13.3135C13.5554 51.6568 13.8319 50.5508 14.1315 49.4678C16.1591 49.3757 17.772 47.6245 17.6798 45.5853C17.6338 44.5024 17.1269 43.5347 16.3434 42.878C16.6315 42.1637 16.9425 41.4494 17.2536 40.7582C17.4379 40.7812 17.6107 40.7812 17.7951 40.7812C19.8457 40.689 21.4471 38.9494 21.3665 36.8987C21.3319 36.0923 21.0324 35.3434 20.56 34.7443C21.0209 34.03 21.5047 33.3503 22.0001 32.6706C22.4379 32.8319 22.9103 32.9125 23.3941 32.8895C25.4333 32.7973 27.0462 31.0577 26.9656 29.007C26.9425 28.4425 26.7812 27.9125 26.5278 27.4287C27.1153 26.8526 27.7259 26.2996 28.3365 25.7582C28.901 26.0577 29.5577 26.219 30.2374 26.1959C32.2766 26.1038 33.8895 24.3526 33.8089 22.3135C33.7974 22.1061 33.7743 21.8987 33.7282 21.6913C34.5232 21.1844 35.3296 20.689 36.1591 20.2167C36.8619 20.8158 37.7605 21.1614 38.7398 21.1153C40.7789 21.0347 42.3918 19.2835 42.3112 17.2443V17.2213C42.8987 16.9678 43.4978 16.7374 44.0969 16.507C44.8112 17.4402 45.9633 18.0393 47.219 17.9817C49.1891 17.901 50.7674 16.2766 50.7904 14.3296C51.5854 14.1107 52.3918 13.9033 53.1983 13.6959C53.7628 14.3641 54.5577 14.8365 55.4448 14.9747V12.7628C54.8918 12.5323 54.5001 12.0139 54.4771 11.3688C54.4425 10.6775 54.8457 10.09 55.4448 9.84802V7.62451ZM29.5001 11.1499C30.3872 11.1499 31.0785 11.8411 31.0785 12.7282C31.0785 13.6038 30.3872 14.295 29.5001 14.295C28.6245 14.295 27.9333 13.6038 27.9333 12.7282C27.9333 11.8411 28.6245 11.1499 29.5001 11.1499ZM47.0001 12.6936C47.8872 12.6591 48.6015 13.3158 48.6476 14.2029C48.6822 15.0784 48.0139 15.7927 47.1384 15.8273C46.2513 15.8734 45.537 15.2052 45.5024 14.3296C45.4679 13.4425 46.1245 12.7282 47.0001 12.6936ZM38.5209 15.8273C39.3964 15.7927 40.1222 16.4494 40.1568 17.325C40.1914 18.2121 39.5232 18.9264 38.6476 18.9609C37.772 19.007 37.0462 18.3388 37.0116 17.4632C36.9771 16.5761 37.6338 15.8618 38.5209 15.8273ZM54.3849 17.5439C52.5186 17.6245 51.0209 19.0876 50.8365 20.8964C49.7651 21.2075 48.7167 21.5416 47.6914 21.8987C46.9771 21.0577 45.8941 20.5393 44.719 20.5969C42.6683 20.6775 41.0669 22.4287 41.1476 24.4678C41.1476 24.56 41.1591 24.6406 41.1706 24.7328C40.2144 25.2397 39.2928 25.7697 38.3941 26.3457C37.7259 25.8618 36.9195 25.5853 36.0439 25.6199C34.0047 25.7121 32.3918 27.4632 32.484 29.5024C32.4955 29.9287 32.5877 30.3319 32.7374 30.7121C31.8158 31.5876 30.9287 32.5208 30.0992 33.5116C29.6269 33.3158 29.0969 33.2121 28.5554 33.2351C26.5162 33.3158 24.9033 35.0669 24.984 37.1176C25.0301 38.0508 25.4218 38.8918 26.0209 39.5254C25.3757 40.7236 24.7881 41.9794 24.2582 43.3042C21.4126 43.3042 20.6407 45.5623 20.6522 47.1752C20.7098 48.3388 21.2974 49.3641 22.1614 50.0093C21.954 50.9194 21.7697 51.8526 21.6084 52.8088H23.7974C23.9241 52.1061 24.0623 51.4148 24.2121 50.7466C24.3158 50.7582 24.4195 50.7466 24.5347 50.7466C26.5739 50.666 28.1868 48.9148 28.1061 46.8757C28.0485 45.5969 27.3457 44.4909 26.3434 43.8688C26.8043 42.7167 27.3227 41.6337 27.8872 40.5969C28.1983 40.666 28.5324 40.7006 28.8665 40.6775C30.9057 40.5969 32.5186 38.8457 32.4379 36.8065C32.4033 36.0807 32.1614 35.4125 31.7697 34.848C32.507 33.9955 33.2789 33.1775 34.0854 32.4056C34.7305 32.8549 35.5139 33.1084 36.355 33.0738C38.4057 32.9817 40.007 31.242 39.9264 29.1913C39.9149 28.7996 39.8342 28.4194 39.696 28.0623C40.4563 27.59 41.2282 27.1406 42.0232 26.7144C42.749 27.5669 43.8319 28.0853 45.0186 28.0393C47.0577 27.9471 48.6706 26.2075 48.59 24.1568C48.59 24.0646 48.5785 23.9724 48.5669 23.8803C49.4425 23.5692 50.3411 23.2812 51.2513 23.0162C51.908 24.2374 53.2213 25.0554 54.696 24.9863C54.9494 24.9863 55.2029 24.9402 55.4448 24.8826V22.5554C55.2144 22.7282 54.9264 22.8319 54.6038 22.8434C53.7282 22.878 53.0024 22.2098 52.9679 21.3342C52.9333 20.4586 53.59 19.7328 54.4771 19.6982C54.8457 19.6867 55.1798 19.7904 55.4448 19.9863V17.6591C55.0531 17.5669 54.7651 17.5439 54.3849 17.5439ZM21.0554 18.1084C21.9425 18.1084 22.6338 18.7996 22.6338 19.6752C22.6338 20.5623 21.9425 21.242 21.0554 21.242C20.1798 21.242 19.4886 20.5623 19.4886 19.6752C19.4886 18.7996 20.1798 18.1084 21.0554 18.1084ZM30.0186 20.8964C30.8941 20.8618 31.6199 21.5185 31.6545 22.4056C31.6891 23.2812 31.0324 24.007 30.1453 24.0416C29.2697 24.0761 28.5439 23.4079 28.5093 22.5323C28.4748 21.6568 29.143 20.931 30.0186 20.8964ZM44.7997 22.7397C45.6868 22.7052 46.401 23.3734 46.4356 24.2489C46.4702 25.136 45.8135 25.8503 44.9379 25.8849C44.0508 25.9194 43.3365 25.2628 43.2904 24.3757C43.2559 23.5001 43.9241 22.7743 44.7997 22.7397ZM13.5209 26.1383C14.408 26.1383 15.0992 26.8296 15.0992 27.7052C15.0992 28.5923 14.408 29.2835 13.5209 29.2835C12.6453 29.2835 11.954 28.5923 11.954 27.7052C11.954 26.8296 12.6453 26.1383 13.5209 26.1383ZM23.1752 27.59C24.0508 27.5554 24.7766 28.2236 24.8112 29.0992C24.8457 29.9747 24.1891 30.7006 23.302 30.7351C22.4264 30.7697 21.7006 30.113 21.666 29.2259C21.6315 28.3503 22.2881 27.636 23.1752 27.59ZM36.1361 27.7743C37.0232 27.7397 37.7374 28.4079 37.772 29.2835C37.8181 30.1591 37.1499 30.8849 36.2628 30.9194C35.3872 30.954 34.6729 30.2973 34.6384 29.4102C34.5923 28.5347 35.2605 27.8204 36.1361 27.7743ZM50.3296 28.6499H50.1338C48.0946 28.7305 46.4817 30.4817 46.5623 32.5323C46.5739 32.5554 46.5739 32.59 46.5739 32.6245C45.7789 32.8895 45.0186 33.2006 44.2812 33.5462C43.6015 32.9932 42.7259 32.6706 41.7812 32.7052C39.7305 32.7973 38.1292 34.537 38.2098 36.5876C38.2213 36.9794 38.302 37.348 38.4287 37.7052C37.5877 38.5807 36.8158 39.537 36.1361 40.5623C35.7444 40.4471 35.3296 40.3895 34.9033 40.4125C32.8642 40.4932 31.2513 42.2443 31.3319 44.2835C31.3895 45.5623 32.0923 46.6683 33.1061 47.2904C32.9103 47.9932 32.7374 48.719 32.5877 49.4563C30.8711 49.6867 29.5462 51.0923 29.3849 52.8088H31.5508C31.7006 52.1176 32.2881 51.6107 33.0255 51.5761C33.8089 51.5416 34.4656 52.0715 34.6269 52.8088H36.8043C36.6775 51.4724 35.848 50.3549 34.7075 49.7904C34.8457 49.1222 35.007 48.477 35.1798 47.8549H35.2144C37.2536 47.7628 38.8665 46.0231 38.7858 43.9724C38.7513 43.1314 38.4287 42.3595 37.9218 41.7489C38.4748 40.9194 39.0854 40.1591 39.7536 39.4448C40.3987 39.9171 41.2167 40.1936 42.0808 40.1476C44.1199 40.0669 45.7328 38.3158 45.6522 36.2766C45.6407 35.954 45.5831 35.6429 45.5024 35.3549C46.09 35.09 46.7006 34.848 47.3342 34.6291C48.0485 35.5623 49.1891 36.1499 50.4448 36.0923C52.1038 36.0231 53.4748 34.8595 53.8895 33.3273C54.3964 33.2812 54.9149 33.2582 55.4448 33.2351V31.0923C54.9034 31.1038 54.3504 31.1383 53.8204 31.1729C53.3135 29.7098 51.931 28.6614 50.3296 28.6499ZM50.2259 30.8042C51.1015 30.7697 51.8273 31.4264 51.8619 32.3019C51.8964 33.189 51.2398 33.9033 50.3527 33.9494C49.4771 33.984 48.7628 33.3158 48.7167 32.4402C48.6821 31.5531 49.3504 30.8388 50.2259 30.8042ZM41.8619 34.8595C42.749 34.825 43.4633 35.4817 43.4978 36.3688C43.5324 37.2443 42.8757 37.9586 42.0001 38.0047C41.113 38.0393 40.3987 37.3711 40.3527 36.4955C40.3181 35.6084 40.9863 34.8941 41.8619 34.8595ZM7.89644 35.3204C8.77317 35.3204 9.46441 36.0116 9.46441 36.8987C9.46441 37.7743 8.77317 38.4655 7.89644 38.4655C7.0151 38.4655 6.32731 37.7743 6.32731 36.8987C6.32731 36.0116 7.0151 35.3204 7.89644 35.3204ZM28.6476 35.3895C29.5232 35.3434 30.249 36.0116 30.2835 36.8987C30.3181 37.7743 29.6614 38.4886 28.7743 38.5231C27.8987 38.5692 27.1729 37.901 27.1384 37.0254C27.1038 36.1383 27.7605 35.4241 28.6476 35.3895ZM17.5762 35.4817C18.4633 35.4471 19.1775 36.1153 19.2121 36.9909C19.2582 37.8664 18.59 38.5923 17.7144 38.6268C16.8273 38.6614 16.113 38.0047 16.0785 37.1176C16.0324 36.242 16.7006 35.5277 17.5762 35.4817ZM54.3619 36.3572C52.6453 36.4724 51.1591 37.7973 50.9287 39.5715C50.8826 39.848 50.8826 40.136 50.9057 40.401C50.2605 40.6775 49.6269 41.0001 49.0163 41.3918C48.4402 40.954 47.7259 40.689 46.954 40.6545C44.9033 40.5738 43.1522 42.1867 43.0715 44.2259C43.0255 45.3319 43.4863 46.3572 44.2351 47.0715C43.9126 47.8204 43.6591 48.6153 43.4633 49.4678C41.8043 49.7443 40.5139 51.1268 40.3642 52.8088H42.5416C42.6798 52.1176 43.2674 51.6107 44.0047 51.5761C44.7881 51.5416 45.4448 52.0715 45.6061 52.8088H47.7835C47.6568 51.4379 46.7812 50.2858 45.5946 49.7443C45.7328 49.1453 45.9172 48.5692 46.1245 48.0393C46.2974 48.0738 46.4702 48.0853 46.643 48.0969C48.6821 48.1775 50.4333 46.5761 50.5139 44.5254C50.537 44.03 50.4563 43.5462 50.2951 43.0969C50.7444 42.8204 51.2282 42.5784 51.7006 42.3826C52.2881 43.1084 53.1292 43.6268 54.1199 43.7651C54.5808 43.8227 55.0301 43.7996 55.4448 43.7075V41.4033C55.1568 41.5876 54.7881 41.6798 54.408 41.6222C53.5324 41.507 52.9448 40.7351 53.06 39.8595C53.1752 38.984 53.9586 38.3964 54.8227 38.5116C55.0646 38.5462 55.272 38.6268 55.4448 38.742V36.4379C55.0762 36.3572 54.7075 36.3227 54.3619 36.3572ZM34.9955 42.5554C35.8711 42.5208 36.5969 43.1775 36.6315 44.0646C36.666 44.9402 36.0093 45.666 35.1222 45.7006C34.2467 45.7351 33.5209 45.0784 33.4863 44.1913C33.4517 43.3158 34.1084 42.59 34.9955 42.5554ZM46.7006 42.8088C46.7467 42.7973 46.8043 42.8088 46.8619 42.8088C47.7374 42.8434 48.4057 43.5577 48.3711 44.4448C48.3365 45.3204 47.6107 45.9886 46.7351 45.954C45.848 45.9079 45.1914 45.1936 45.2259 44.3065C45.2605 43.4886 45.8941 42.8549 46.7006 42.8088ZM13.901 44.1683C14.7766 44.1337 15.4909 44.7904 15.5255 45.6775C15.5716 46.5531 14.9033 47.2674 14.0278 47.3135C13.1407 47.348 12.4264 46.6798 12.3918 45.8042C12.3457 44.9287 13.0139 44.2029 13.901 44.1683ZM4.17293 44.6752C5.05427 44.6752 5.74321 45.3664 5.74321 46.2535C5.74321 47.1291 5.05427 47.8204 4.17293 47.8204C3.2916 47.8204 2.5992 47.1291 2.5992 46.2535C2.5992 45.3664 3.2916 44.6752 4.17293 44.6752ZM24.3158 45.4586C25.1914 45.4241 25.9172 46.0807 25.9517 46.9563C25.9863 47.8434 25.3296 48.5577 24.4425 48.6038C23.5669 48.6383 22.8411 47.9701 22.8066 47.0946C22.772 46.2075 23.4402 45.4932 24.3158 45.4586ZM54.5232 48.2697C52.5646 48.2927 50.9287 49.8595 50.8365 51.8411C50.825 52.1752 50.8596 52.4978 50.9287 52.8088H53.2213C53.06 52.5554 52.9794 52.2559 52.9909 51.9333C53.0255 51.0462 53.7513 50.3895 54.6269 50.4241C54.9379 50.4356 55.2144 50.5393 55.4448 50.7006V48.3849C55.0992 48.3042 54.8457 48.2697 54.5232 48.2697Z" fill="url(#paint0_linear_295_1254)" fill-opacity="0.2"/>
<defs>
<linearGradient id="paint0_linear_295_1254" x1="27.9448" y1="0.550781" x2="27.9448" y2="52.8088" gradientUnits="userSpaceOnUse">
<stop/>
<stop offset="1" stop-opacity="0"/>
</linearGradient>
</defs>
</svg>
