<svg width="75" height="74" viewBox="0 0 75 74" fill="none" xmlns="http://www.w3.org/2000/svg">
<path d="M37.5831 0.345703C30.3064 0.345703 23.1931 2.50349 17.1428 6.5462C11.0924 10.5889 6.37678 16.335 3.59211 23.0577C0.807445 29.7805 0.0788495 37.1781 1.49846 44.3149C2.91807 51.4518 6.42213 58.0074 11.5675 63.1528C16.7129 68.2982 23.2685 71.8023 30.4054 73.2219C37.5423 74.6415 44.9398 73.9129 51.6626 71.1282C58.3854 68.3436 64.1314 63.6279 68.1741 57.5776C72.2169 51.5272 74.3746 44.4139 74.3746 37.1373C74.3746 32.3057 73.423 27.5215 71.5741 23.0577C69.7251 18.594 67.0151 14.5381 63.5986 11.1217C60.1822 7.70529 56.1264 4.99524 51.6626 3.14629C47.1988 1.29735 42.4146 0.345703 37.5831 0.345703ZM49.2828 56.0923C49.1455 56.436 48.9362 56.7464 48.669 57.0025C48.4019 57.2586 48.083 57.4546 47.7337 57.5773C47.3845 57.7 47.0131 57.7465 46.6444 57.7137C46.2758 57.681 45.9184 57.5697 45.5963 57.3873L35.6074 49.6243L29.1983 55.5404C29.0495 55.6502 28.8755 55.7209 28.6923 55.746C28.5091 55.7711 28.3225 55.7497 28.1497 55.6839L29.3786 44.6869L29.4154 44.72L29.4411 44.5029C29.4411 44.5029 47.4138 28.138 48.1459 27.4427C48.8891 26.7473 48.6426 26.5965 48.6426 26.5965C48.6868 25.7503 47.3144 26.5965 47.3144 26.5965L23.4993 41.9165L13.5839 38.539C13.5839 38.539 12.0608 37.9945 11.9173 36.7914C11.7664 35.5994 13.6318 34.9518 13.6318 34.9518L53.0613 19.286C53.0613 19.286 56.3026 17.8438 56.3026 20.2352L49.2828 56.0923Z" fill="white"/>
</svg>
